<svg xmlns="http://www.w3.org/2000/svg" viewBox="-339.17 -421.381 2327.85 2122.744">
  <defs>
    <style>
      .cls-1 {
        fill: #0681a0;
        stroke: #95989a;
        stroke-width: 1px;
      }

      .cls-2 {
        opacity: 0.501;
      }

      .cls-3 {
        fill: #64c7cc;
        stroke: #333;
        stroke-width: 11px;
      }

      .cls-4 {
        stroke: none;
      }

      .cls-5 {
        fill: none;
      }
    </style>
  </defs>
  <g id="group-9" transform="translate(-130 -79)">
    <g id="rectangle-2" class="cls-1" transform="translate(-204 -336)">
      <rect class="cls-4" width="2317" height="2110"/>
      <rect class="cls-5" x="0.5" y="0.5" width="2316" height="2109"/>
    </g>
    <g id="group-8" class="cls-2">
      <path id="path-4" class="cls-3" d="M833.33,245.5,1020.5,135.993,1207.146,245.5V459.821L1020.992,568.552,833.33,459.821Z" transform="translate(-843.526 -472)"/>
      <path id="path-4-2" data-name="path-4" class="cls-3" d="M833.33,245.5,1020.5,135.993,1207.146,245.5V459.821L1020.992,568.552,833.33,459.821Z" transform="translate(-455.196 -472)"/>
      <path id="path-4-3" data-name="path-4" class="cls-3" d="M833.33,245.5,1020.5,135.993,1207.146,245.5V459.821L1020.992,568.552,833.33,459.821Z" transform="translate(-66.865 -472)"/>
      <path id="path-4-4" data-name="path-4" class="cls-3" d="M833.33,245.5,1020.5,135.993,1207.146,245.5V459.821L1020.992,568.552,833.33,459.821Z" transform="translate(321.465 -472)"/>
      <path id="path-4-5" data-name="path-4" class="cls-3" d="M833.33,245.5,1020.5,135.993,1207.146,245.5V459.821L1020.992,568.552,833.33,459.821Z" transform="translate(709.796 -472)"/>
      <path id="path-4-6" data-name="path-4" class="cls-3" d="M833.33,245.5,1020.5,135.993,1207.146,245.5V459.821L1020.992,568.552,833.33,459.821Z" transform="translate(-1037 -136.184)"/>
      <path id="path-4-7" data-name="path-4" class="cls-3" d="M833.33,245.5,1020.5,135.993,1207.146,245.5V459.821L1020.992,568.552,833.33,459.821Z" transform="translate(-648.67 -136.184)"/>
      <path id="path-4-8" data-name="path-4" class="cls-3" d="M833.33,245.5,1020.5,135.993,1207.146,245.5V459.821L1020.992,568.552,833.33,459.821Z" transform="translate(-260.339 -136.184)"/>
      <path id="path-4-9" data-name="path-4" class="cls-3" d="M833.33,245.5,1020.5,135.993,1207.146,245.5V459.821L1020.992,568.552,833.33,459.821Z" transform="translate(127.991 -136.184)"/>
      <path id="path-4-10" data-name="path-4" class="cls-3" d="M833.33,245.5,1020.5,135.993,1207.146,245.5V459.821L1020.992,568.552,833.33,459.821Z" transform="translate(516.321 -136.184)"/>
      <path id="path-4-11" data-name="path-4" class="cls-3" d="M833.33,245.5,1020.5,135.993,1207.146,245.5V459.821L1020.992,568.552,833.33,459.821Z" transform="translate(904.652 -136.184)"/>
      <path id="path-4-12" data-name="path-4" class="cls-3" d="M833.33,245.5,1020.5,135.993,1207.146,245.5V459.821L1020.992,568.552,833.33,459.821Z" transform="translate(-842.144 199.632)"/>
      <path id="path-4-13" data-name="path-4" class="cls-3" d="M833.33,245.5,1020.5,135.993,1207.146,245.5V459.821L1020.992,568.552,833.33,459.821Z" transform="translate(-453.814 199.632)"/>
      <path id="path-4-14" data-name="path-4" class="cls-3" d="M833.33,245.5,1020.5,135.993,1207.146,245.5V459.821L1020.992,568.552,833.33,459.821Z" transform="translate(-65.483 199.632)"/>
      <path id="path-4-15" data-name="path-4" class="cls-3" d="M833.33,245.5,1020.5,135.993,1207.146,245.5V459.821L1020.992,568.552,833.33,459.821Z" transform="translate(322.847 199.632)"/>
      <path id="path-4-16" data-name="path-4" class="cls-3" d="M833.33,245.5,1020.5,135.993,1207.146,245.5V459.821L1020.992,568.552,833.33,459.821Z" transform="translate(711.178 199.632)"/>
      <path id="path-4-17" data-name="path-4" class="cls-3" d="M833.33,245.5,1020.5,135.993,1207.146,245.5V459.821L1020.992,568.552,833.33,459.821Z" transform="translate(-1035.618 535.448)"/>
      <path id="path-4-18" data-name="path-4" class="cls-3" d="M833.33,245.5,1020.5,135.993,1207.146,245.5V459.821L1020.992,568.552,833.33,459.821Z" transform="translate(-647.288 535.448)"/>
      <path id="path-4-19" data-name="path-4" class="cls-3" d="M833.33,245.5,1020.5,135.993,1207.146,245.5V459.821L1020.992,568.552,833.33,459.821Z" transform="translate(-258.957 535.448)"/>
      <path id="path-4-20" data-name="path-4" class="cls-3" d="M833.33,245.5,1020.5,135.993,1207.146,245.5V459.821L1020.992,568.552,833.33,459.821Z" transform="translate(129.373 535.448)"/>
      <path id="path-4-21" data-name="path-4" class="cls-3" d="M833.33,245.5,1020.5,135.993,1207.146,245.5V459.821L1020.992,568.552,833.33,459.821Z" transform="translate(517.703 535.448)"/>
      <path id="path-4-22" data-name="path-4" class="cls-3" d="M833.33,245.5,1020.5,135.993,1207.146,245.5V459.821L1020.992,568.552,833.33,459.821Z" transform="translate(906.034 535.448)"/>
      <path id="path-4-23" data-name="path-4" class="cls-3" d="M833.33,245.5,1020.5,135.993,1207.146,245.5V459.821L1020.992,568.552,833.33,459.821Z" transform="translate(-841.526 870)"/>
      <path id="path-4-24" data-name="path-4" class="cls-3" d="M833.33,245.5,1020.5,135.993,1207.146,245.5V459.821L1020.992,568.552,833.33,459.821Z" transform="translate(-453.196 870)"/>
      <path id="path-4-25" data-name="path-4" class="cls-3" d="M833.33,245.5,1020.5,135.993,1207.146,245.5V459.821L1020.992,568.552,833.33,459.821Z" transform="translate(-64.865 870)"/>
      <path id="path-4-26" data-name="path-4" class="cls-3" d="M833.33,245.5,1020.5,135.993,1207.146,245.5V459.821L1020.992,568.552,833.33,459.821Z" transform="translate(323.465 870)"/>
      <path id="path-4-27" data-name="path-4" class="cls-3" d="M833.33,245.5,1020.5,135.993,1207.146,245.5V459.821L1020.992,568.552,833.33,459.821Z" transform="translate(711.796 870)"/>
      <path id="path-4-28" data-name="path-4" class="cls-3" d="M833.33,245.5,1020.5,135.993,1207.146,245.5V459.821L1020.992,568.552,833.33,459.821Z" transform="translate(-1036.618 1205.448)"/>
      <path id="path-4-29" data-name="path-4" class="cls-3" d="M833.33,245.5,1020.5,135.993,1207.146,245.5V459.821L1020.992,568.552,833.33,459.821Z" transform="translate(-648.288 1205.448)"/>
      <path id="path-4-30" data-name="path-4" class="cls-3" d="M833.33,245.5,1020.5,135.993,1207.146,245.5V459.821L1020.992,568.552,833.33,459.821Z" transform="translate(-259.957 1205.448)"/>
      <path id="path-4-31" data-name="path-4" class="cls-3" d="M833.33,245.5,1020.5,135.993,1207.146,245.5V459.821L1020.992,568.552,833.33,459.821Z" transform="translate(128.373 1205.448)"/>
      <path id="path-4-32" data-name="path-4" class="cls-3" d="M833.33,245.5,1020.5,135.993,1207.146,245.5V459.821L1020.992,568.552,833.33,459.821Z" transform="translate(516.703 1205.448)"/>
      <path id="path-4-33" data-name="path-4" class="cls-3" d="M833.33,245.5,1020.5,135.993,1207.146,245.5V459.821L1020.992,568.552,833.33,459.821Z" transform="translate(905.034 1205.448)"/>
    </g>
  </g>
</svg>
