<?xml version="1.0" encoding="utf-8"?>
<!-- Generator: Adobe Illustrator 19.0.0, SVG Export Plug-In . SVG Version: 6.00 Build 0)  -->
<svg version="1.1" id="Layer_1" xmlns="http://www.w3.org/2000/svg" xmlns:xlink="http://www.w3.org/1999/xlink" x="0px" y="0px"
	 viewBox="547 -476.3 2054.2 1513.3" style="enable-background:new 547 -476.3 2054.2 1513.3;" xml:space="preserve">
<style type="text/css">
	.st0{fill:#0681A0;}
	.st1{fill:none;stroke:#95989A;stroke-width:0.5396;}
	.st2{fill:#64C7CC;stroke:#333333;stroke-width:11;}
</style>
<g>
	<g id="rectangle-2" transform="translate(192 88)">
		<rect x="56" y="-792.6" class="st0" width="2531.6" height="1793.3"/>
		<rect x="56.3" y="-792.3" class="st1" width="2531.1" height="1792.8"/>
	</g>
	<path id="path-4_1_" class="st2" d="M452.8-587.1L640-696.6l186.6,109.5v214.3L640.5-264L452.8-372.7V-587.1z"/>
	<path id="path-4-2_1_" class="st2" d="M841.1-587.1l187.2-109.5L1215-587.1v214.3L1028.8-264L841.1-372.7V-587.1z"/>
	<path id="path-4-3_1_" class="st2" d="M1229.5-587.1l187.1-109.5l186.6,109.5v214.3L1417.1-264l-187.7-108.7L1229.5-587.1
		L1229.5-587.1L1229.5-587.1z"/>
	<path id="path-4-4_1_" class="st2" d="M1617.8-587.1L1805-696.6l186.6,109.5v214.3L1805.5-264l-187.7-108.7L1617.8-587.1
		L1617.8-587.1z"/>
	<path id="path-4-5_1_" class="st2" d="M2006.1-587.1l187.2-109.5l186.6,109.5v214.3L2193.8-264l-187.7-108.7V-587.1L2006.1-587.1z"
		/>
	<path id="path-4-6_1_" class="st2" d="M259.3-251.3l187.2-109.5l186.6,109.5V-37L447,71.8L259.3-36.9V-251.3z"/>
	<path id="path-4-7_1_" class="st2" d="M647.7-251.3l187.2-109.5l186.6,109.5V-37L835.3,71.7L647.6-37L647.7-251.3L647.7-251.3z"/>
	<path id="path-4-8_1_" class="st2" d="M1036-251.3l187.2-109.5l186.6,109.5V-37L1223.6,71.7L1036-37V-251.3z"/>
	<path id="path-4-9_1_" class="st2" d="M1424.3-251.3l187.2-109.5l186.6,109.5V-37L1612,71.8L1424.3-36.9V-251.3z"/>
	<path id="path-4-10_1_" class="st2" d="M1812.7-251.3l187.2-109.5l186.6,109.5V-37L2000.3,71.7L1812.6-37L1812.7-251.3
		L1812.7-251.3z"/>
	<path id="path-4-11_1_" class="st2" d="M2201-251.3l187.2-109.5l186.6,109.5V-37L2388.6,71.7L2201-37V-251.3z"/>
	<path id="path-4-12_1_" class="st2" d="M454.2,84.5L641.4-25L828,84.5v214.3L641.8,407.5L454.1,298.8L454.2,84.5L454.2,84.5z"/>
	<path id="path-4-13_1_" class="st2" d="M842.5,84.5L1029.7-25l186.6,109.5v214.3l-186.2,108.7L842.4,298.8L842.5,84.5L842.5,84.5z"
		/>
	<path id="path-4-14_1_" class="st2" d="M1230.8,84.5L1418-25l186.6,109.5v214.3l-186.2,108.7l-187.7-108.7V84.5H1230.8z"/>
	<path id="path-4-15_1_" class="st2" d="M1619.2,84.5L1806.4-25L1993,84.5v214.3l-186.2,108.7l-187.7-108.7L1619.2,84.5L1619.2,84.5
		z"/>
	<path id="path-4-16_1_" class="st2" d="M2007.5,84.5L2194.7-25l186.6,109.5v214.3l-186.2,108.7l-187.7-108.7V84.5H2007.5z"/>
	<path id="path-4-17_1_" class="st2" d="M260.7,420.3l187.2-109.5l186.6,109.5v214.3L448.4,743.4L260.7,634.7V420.3z"/>
	<path id="path-4-18_1_" class="st2" d="M649,420.3l187.2-109.5l186.6,109.5v214.3L836.7,743.4L649,634.7V420.3z"/>
	<path id="path-4-19_1_" class="st2" d="M1037.4,420.3l187.2-109.5l186.6,109.5v214.3L1225,743.4l-187.7-108.7L1037.4,420.3
		L1037.4,420.3z"/>
	<path id="path-4-20_1_" class="st2" d="M1425.7,420.3l187.2-109.5l186.6,109.5v214.3l-186.1,108.8l-187.7-108.7V420.3L1425.7,420.3
		z"/>
	<path id="path-4-21_1_" class="st2" d="M1814,420.3l187.2-109.5l186.6,109.5v214.3l-186.1,108.8L1814,634.7V420.3z"/>
	<path id="path-4-22_1_" class="st2" d="M2202.4,420.3l187.2-109.5l186.6,109.5v214.3L2390,743.4l-187.7-108.7L2202.4,420.3
		L2202.4,420.3z"/>
	<path id="path-4-23_1_" class="st2" d="M454.8,754.9L642,645.4l186.6,109.5v214.3l-186.2,108.7L454.7,969.2L454.8,754.9
		L454.8,754.9z"/>
	<path id="path-4-24_1_" class="st2" d="M843.1,754.9l187.2-109.5L1217,754.9v214.3l-186.2,108.7L843.1,969.2L843.1,754.9
		L843.1,754.9z"/>
	<path id="path-4-25_1_" class="st2" d="M1231.5,754.9l187.1-109.5l186.6,109.5v214.3L1419,1077.9l-187.7-108.7V754.9H1231.5z"/>
	<path id="path-4-26_1_" class="st2" d="M1619.8,754.9L1807,645.4l186.6,109.5v214.3l-186.2,108.7l-187.7-108.7L1619.8,754.9
		L1619.8,754.9z"/>
	<path id="path-4-27_1_" class="st2" d="M2008.1,754.9l187.2-109.5l186.6,109.5v214.3l-186.2,108.7L2008,969.2V754.9H2008.1z"/>
	<path id="path-4-28_1_" class="st2" d="M2394-586.3l187.2-109.5l186.6,109.5V-372l-186.1,108.8L2394-372V-586.3z"/>
	<path id="path-4-39" class="st2" d="M2395.4,85.3l187.2-109.5l186.6,109.5v214.3L2583,408.4l-187.7-108.7L2395.4,85.3L2395.4,85.3z
		"/>
	<path id="path-4-50" class="st2" d="M2394.4,755.3l187.2-109.5l186.6,109.5v214.3L2582,1078.4l-187.7-108.7L2394.4,755.3
		L2394.4,755.3z"/>
</g>
</svg>
