<?xml version="1.0" encoding="utf-8"?>
<!-- Generator: Adobe Illustrator 19.0.0, SVG Export Plug-In . SVG Version: 6.00 Build 0)  -->
<svg version="1.1" id="Layer_1" xmlns="http://www.w3.org/2000/svg" xmlns:xlink="http://www.w3.org/1999/xlink" x="0px" y="0px"
	 viewBox="547 -476.3 2054.2 1513.3" style="enable-background:new 547 -476.3 2054.2 1513.3;" xml:space="preserve">
<style type="text/css">
	.st0{fill:#0681A0;}
	.st1{fill:none;stroke:#95989A;stroke-width:0.5396;}
	.st2{fill:#64C7CC;stroke:#333333;stroke-width:11;}
</style>
<g>
	<g id="rectangle-2" transform="translate(192 88)">
		<rect x="108" y="-676.6" class="st0" width="2531.6" height="1793.3"/>
		<rect x="108.3" y="-676.3" class="st1" width="2531.1" height="1792.8"/>
	</g>
	<path id="path-4_1_" class="st2" d="M504.8-471.1L692-580.6l186.6,109.5v214.3L692.5-148L504.8-256.7V-471.1z"/>
	<path id="path-4-2_1_" class="st2" d="M893.1-471.1l187.2-109.5L1267-471.1v214.3L1080.8-148L893.1-256.7V-471.1z"/>
	<path id="path-4-3_1_" class="st2" d="M1281.5-471.1l187.1-109.5l186.6,109.5v214.3L1469.1-148l-187.7-108.7L1281.5-471.1
		L1281.5-471.1L1281.5-471.1z"/>
	<path id="path-4-4_1_" class="st2" d="M1669.8-471.1L1857-580.6l186.6,109.5v214.3L1857.5-148l-187.7-108.7L1669.8-471.1
		L1669.8-471.1z"/>
	<path id="path-4-5_1_" class="st2" d="M2058.1-471.1l187.2-109.5l186.6,109.5v214.3L2245.8-148l-187.7-108.7V-471.1L2058.1-471.1z"
		/>
	<path id="path-4-6_1_" class="st2" d="M311.3-135.3l187.2-109.5l186.6,109.5V79L499,187.8L311.3,79.1V-135.3z"/>
	<path id="path-4-7_1_" class="st2" d="M699.7-135.3l187.2-109.5l186.6,109.5V79L887.3,187.7L699.6,79L699.7-135.3L699.7-135.3z"/>
	<path id="path-4-8_1_" class="st2" d="M1088-135.3l187.2-109.5l186.6,109.5V79l-186.2,108.7L1088,79V-135.3z"/>
	<path id="path-4-9_1_" class="st2" d="M1476.3-135.3l187.2-109.5l186.6,109.5V79L1664,187.8L1476.3,79.1V-135.3z"/>
	<path id="path-4-10_1_" class="st2" d="M1864.7-135.3l187.2-109.5l186.6,109.5V79l-186.2,108.7L1864.6,79L1864.7-135.3
		L1864.7-135.3z"/>
	<path id="path-4-11_1_" class="st2" d="M2253-135.3l187.2-109.5l186.6,109.5V79l-186.2,108.7L2253,79V-135.3z"/>
	<path id="path-4-12_1_" class="st2" d="M506.2,200.5L693.4,91L880,200.5v214.3L693.8,523.5L506.1,414.8L506.2,200.5L506.2,200.5z"
		/>
	<path id="path-4-13_1_" class="st2" d="M894.5,200.5L1081.7,91l186.6,109.5v214.3l-186.2,108.7L894.4,414.8L894.5,200.5
		L894.5,200.5z"/>
	<path id="path-4-14_1_" class="st2" d="M1282.8,200.5L1470,91l186.6,109.5v214.3l-186.2,108.7l-187.7-108.7V200.5H1282.8z"/>
	<path id="path-4-15_1_" class="st2" d="M1671.2,200.5L1858.4,91L2045,200.5v214.3l-186.2,108.7l-187.7-108.7L1671.2,200.5
		L1671.2,200.5z"/>
	<path id="path-4-16_1_" class="st2" d="M2059.5,200.5L2246.7,91l186.6,109.5v214.3l-186.2,108.7l-187.7-108.7V200.5H2059.5z"/>
	<path id="path-4-17_1_" class="st2" d="M312.7,536.3l187.2-109.5l186.6,109.5v214.3L500.4,859.4L312.7,750.7V536.3z"/>
	<path id="path-4-18_1_" class="st2" d="M701,536.3l187.2-109.5l186.6,109.5v214.3L888.7,859.4L701,750.7V536.3z"/>
	<path id="path-4-19_1_" class="st2" d="M1089.4,536.3l187.2-109.5l186.6,109.5v214.3L1277,859.4l-187.7-108.7L1089.4,536.3
		L1089.4,536.3z"/>
	<path id="path-4-20_1_" class="st2" d="M1477.7,536.3l187.2-109.5l186.6,109.5v214.3l-186.1,108.8l-187.7-108.7V536.3L1477.7,536.3
		z"/>
	<path id="path-4-21_1_" class="st2" d="M1866,536.3l187.2-109.5l186.6,109.5v214.3l-186.1,108.8L1866,750.7V536.3z"/>
	<path id="path-4-22_1_" class="st2" d="M2254.4,536.3l187.2-109.5l186.6,109.5v214.3L2442,859.4l-187.7-108.7L2254.4,536.3
		L2254.4,536.3z"/>
	<path id="path-4-23_1_" class="st2" d="M506.8,870.9L694,761.4l186.6,109.5v214.3l-186.2,108.7l-187.7-108.7L506.8,870.9
		L506.8,870.9z"/>
	<path id="path-4-24_1_" class="st2" d="M895.1,870.9l187.2-109.5L1269,870.9v214.3l-186.2,108.7l-187.7-108.7L895.1,870.9
		L895.1,870.9z"/>
	<path id="path-4-25_1_" class="st2" d="M1283.5,870.9l187.1-109.5l186.6,109.5v214.3L1471,1193.9l-187.7-108.7V870.9H1283.5z"/>
	<path id="path-4-26_1_" class="st2" d="M1671.8,870.9L1859,761.4l186.6,109.5v214.3l-186.2,108.7l-187.7-108.7L1671.8,870.9
		L1671.8,870.9z"/>
	<path id="path-4-27_1_" class="st2" d="M2060.1,870.9l187.2-109.5l186.6,109.5v214.3l-186.2,108.7L2060,1085.2V870.9H2060.1z"/>
	<path id="path-4-28_1_" class="st2" d="M2446-470.3l187.2-109.5l186.6,109.5V-256l-186.1,108.8L2446-256V-470.3z"/>
	<path id="path-4-39" class="st2" d="M2447.4,201.3l187.2-109.5l186.6,109.5v214.3L2635,524.4l-187.7-108.7L2447.4,201.3
		L2447.4,201.3z"/>
	<path id="path-4-50" class="st2" d="M2446.4,871.3l187.2-109.5l186.6,109.5v214.3L2634,1194.4l-187.7-108.7L2446.4,871.3
		L2446.4,871.3z"/>
</g>
</svg>
