<?xml version="1.0" encoding="utf-8"?>
<!-- Generator: Adobe Illustrator 19.0.0, SVG Export Plug-In . SVG Version: 6.00 Build 0)  -->
<svg version="1.1" id="Layer_1" xmlns="http://www.w3.org/2000/svg" xmlns:xlink="http://www.w3.org/1999/xlink" x="0px" y="0px"
	 viewBox="547 -476.3 2054.2 782.8" style="enable-background:new 547 -476.3 2054.2 782.8;" xml:space="preserve">
<style type="text/css">
	.st0{fill:#0681A0;}
	.st1{fill:none;stroke:#95989A;stroke-width:0.5396;}
	.st2{fill:#64C7CC;stroke:#333333;stroke-width:11;}
</style>
<g>
	<g id="rectangle-2" transform="translate(192 88)">
		<rect x="38.9" y="-756.8" class="st0" width="2531.6" height="1793.3"/>
		<rect x="39.2" y="-756.5" class="st1" width="2531.1" height="1792.8"/>
	</g>
	<path id="path-4_1_" class="st2" d="M435.7-551.3l187.2-109.5l186.6,109.5V-337L623.4-228.2L435.7-336.9V-551.3z"/>
	<path id="path-4-2_1_" class="st2" d="M824-551.3l187.2-109.5l186.7,109.5V-337l-186.2,108.8L824-336.9V-551.3z"/>
	<path id="path-4-3_1_" class="st2" d="M1212.4-551.3l187.1-109.5l186.6,109.5V-337L1400-228.2l-187.7-108.7L1212.4-551.3
		L1212.4-551.3L1212.4-551.3z"/>
	<path id="path-4-4_1_" class="st2" d="M1600.7-551.3l187.2-109.5l186.6,109.5V-337l-186.1,108.8l-187.7-108.7V-551.3L1600.7-551.3z
		"/>
	<path id="path-4-5_1_" class="st2" d="M1989-551.3l187.2-109.5l186.6,109.5V-337l-186.1,108.8L1989-336.9L1989-551.3L1989-551.3z"
		/>
	<path id="path-4-6_1_" class="st2" d="M242.2-215.5L429.4-325L616-215.5V-1.2L429.9,107.6L242.2-1.1V-215.5z"/>
	<path id="path-4-7_1_" class="st2" d="M630.6-215.5L817.8-325l186.6,109.5V-1.2L818.2,107.5L630.5-1.2L630.6-215.5L630.6-215.5z"/>
	<path id="path-4-8_1_" class="st2" d="M1018.9-215.5L1206.1-325l186.6,109.5V-1.2l-186.2,108.7L1018.9-1.2V-215.5z"/>
	<path id="path-4-9_1_" class="st2" d="M1407.2-215.5L1594.4-325L1781-215.5V-1.2l-186.1,108.8L1407.2-1.1V-215.5z"/>
	<path id="path-4-10_1_" class="st2" d="M1795.6-215.5L1982.8-325l186.6,109.5V-1.2l-186.2,108.7L1795.5-1.2L1795.6-215.5
		L1795.6-215.5z"/>
	<path id="path-4-11_1_" class="st2" d="M2183.9-215.5L2371.1-325l186.6,109.5V-1.2l-186.2,108.7L2183.9-1.2V-215.5z"/>
	<path id="path-4-12_1_" class="st2" d="M437.1,120.3L624.3,10.8l186.6,109.5v214.3L624.7,443.3L437,334.6L437.1,120.3L437.1,120.3z
		"/>
	<path id="path-4-13_1_" class="st2" d="M825.4,120.3l187.2-109.5l186.6,109.5v214.3L1013,443.3L825.3,334.6L825.4,120.3
		L825.4,120.3z"/>
	<path id="path-4-14_1_" class="st2" d="M1213.7,120.3l187.2-109.5l186.6,109.5v214.3l-186.2,108.7l-187.7-108.7L1213.7,120.3
		L1213.7,120.3z"/>
	<path id="path-4-15_1_" class="st2" d="M1602.1,120.3l187.2-109.5l186.6,109.5v214.3l-186.2,108.7L1602,334.6L1602.1,120.3
		L1602.1,120.3z"/>
	<path id="path-4-16_1_" class="st2" d="M1990.4,120.3l187.2-109.5l186.6,109.5v214.3L2178,443.3l-187.7-108.7L1990.4,120.3
		L1990.4,120.3z"/>
	<path id="path-4-17_1_" class="st2" d="M243.6,456.1l187.2-109.5l186.6,109.5v214.3L431.3,779.2L243.6,670.5V456.1z"/>
	<path id="path-4-18_1_" class="st2" d="M631.9,456.1l187.2-109.5l186.6,109.5v214.3L819.6,779.2L631.9,670.5V456.1z"/>
	<path id="path-4-19_1_" class="st2" d="M1020.3,456.1l187.2-109.5l186.6,109.5v214.3l-186.2,108.8l-187.7-108.7L1020.3,456.1
		L1020.3,456.1z"/>
	<path id="path-4-20_1_" class="st2" d="M1408.6,456.1l187.2-109.5l186.6,109.5v214.3l-186.1,108.8l-187.7-108.7V456.1L1408.6,456.1
		z"/>
	<path id="path-4-21_1_" class="st2" d="M1796.9,456.1l187.2-109.5l186.6,109.5v214.3l-186.1,108.8l-187.7-108.7V456.1z"/>
	<path id="path-4-22_1_" class="st2" d="M2185.3,456.1l187.2-109.5l186.6,109.5v214.3l-186.2,108.8l-187.7-108.7L2185.3,456.1
		L2185.3,456.1z"/>
	<path id="path-4-23_1_" class="st2" d="M437.7,790.7l187.2-109.5l186.6,109.5V1005l-186.2,108.7L437.6,1005L437.7,790.7
		L437.7,790.7z"/>
	<path id="path-4-24_1_" class="st2" d="M826,790.7l187.2-109.5l186.7,109.5V1005l-186.2,108.7L826,1005V790.7L826,790.7z"/>
	<path id="path-4-25_1_" class="st2" d="M1214.4,790.7l187.1-109.5l186.6,109.5V1005l-186.2,108.7L1214.2,1005V790.7H1214.4z"/>
	<path id="path-4-26_1_" class="st2" d="M1602.7,790.7l187.2-109.5l186.6,109.5V1005l-186.2,108.7L1602.6,1005L1602.7,790.7
		L1602.7,790.7z"/>
	<path id="path-4-27_1_" class="st2" d="M1991,790.7l187.2-109.5l186.6,109.5V1005l-186.2,108.7L1990.9,1005L1991,790.7L1991,790.7z
		"/>
	<path id="path-4-28_1_" class="st2" d="M2376.9-550.5L2564.1-660l186.6,109.5v214.3l-186.1,108.8l-187.7-108.8V-550.5z"/>
	<path id="path-4-39" class="st2" d="M2378.3,121.1l187.2-109.5l186.6,109.5v214.3l-186.2,108.8l-187.7-108.7L2378.3,121.1
		L2378.3,121.1z"/>
	<path id="path-4-50" class="st2" d="M2377.3,791.1l187.2-109.5l186.6,109.5v214.3l-186.2,108.8l-187.7-108.7L2377.3,791.1
		L2377.3,791.1z"/>
</g>
</svg>
