<?xml version="1.0" encoding="utf-8"?>
<!-- Generator: Adobe Illustrator 19.0.0, SVG Export Plug-In . SVG Version: 6.00 Build 0)  -->
<svg version="1.1" id="Layer_1" xmlns="http://www.w3.org/2000/svg" xmlns:xlink="http://www.w3.org/1999/xlink" x="0px" y="0px"
	 viewBox="1960.7 -1316 4063.3 3210.5" style="enable-background:new 1960.7 -1316 4063.3 3210.5;" xml:space="preserve">
<style type="text/css">
	.st0{fill:#0681A0;}
	.st1{fill:none;stroke:#95989A;}
	.st2{fill:#64C7CC;stroke:#333333;stroke-width:11;}
</style>
<g id="group-11" transform="translate(-1533 -981)">
	<g id="rectangle-2" transform="translate(192 88)">
		<rect x="3101" y="-567" class="st0" width="4480" height="3480"/>
		<rect x="3101.5" y="-566.5" class="st1" width="4479" height="3479"/>
	</g>
	<path id="path-4" class="st2" d="M3497.8-361.5L3685-471l186.6,109.5v214.3L3685.5-38.4l-187.7-108.7V-361.5z"/>
	<path id="path-4-2" class="st2" d="M3886.1-361.5L4073.3-471L4260-361.5v214.3L4073.8-38.4l-187.7-108.7V-361.5z"/>
	<path id="path-4-3" class="st2" d="M4274.5-361.5L4461.6-471l186.6,109.5v214.3L4462.1-38.4l-187.7-108.7V-361.5z"/>
	<path id="path-4-4" class="st2" d="M4662.8-361.5L4850-471l186.6,109.5v214.3L4850.5-38.4l-187.7-108.7V-361.5z"/>
	<path id="path-4-5" class="st2" d="M5051.1-361.5L5238.3-471l186.6,109.5v214.3L5238.8-38.4l-187.7-108.7V-361.5z"/>
	<path id="path-4-6" class="st2" d="M3304.3-25.7l187.2-109.5l186.6,109.5v214.3L3492,297.4l-187.7-108.7V-25.7z"/>
	<path id="path-4-7" class="st2" d="M3692.7-25.7l187.2-109.5l186.6,109.5v214.3l-186.2,108.7l-187.7-108.7V-25.7z"/>
	<path id="path-4-8" class="st2" d="M4081-25.7l187.2-109.5l186.6,109.5v214.3l-186.2,108.7L4081,188.6V-25.7z"/>
	<path id="path-4-9" class="st2" d="M4469.3-25.7l187.2-109.5l186.6,109.5v214.3L4657,297.4l-187.7-108.7V-25.7z"/>
	<path id="path-4-10" class="st2" d="M4857.7-25.7l187.2-109.5l186.6,109.5v214.3l-186.2,108.7l-187.7-108.7V-25.7z"/>
	<path id="path-4-11" class="st2" d="M5246-25.7l187.2-109.5l186.6,109.5v214.3l-186.2,108.7L5246,188.6V-25.7z"/>
	<path id="path-4-12" class="st2" d="M3499.2,310.1l187.2-109.5L3873,310.1v214.3l-186.2,108.7l-187.7-108.7V310.1z"/>
	<path id="path-4-13" class="st2" d="M3887.5,310.1l187.2-109.5l186.6,109.5v214.3l-186.2,108.7l-187.7-108.7V310.1z"/>
	<path id="path-4-14" class="st2" d="M4275.8,310.1L4463,200.6l186.6,109.5v214.3l-186.2,108.7l-187.7-108.7V310.1z"/>
	<path id="path-4-15" class="st2" d="M4664.2,310.1l187.2-109.5L5038,310.1v214.3l-186.2,108.7l-187.7-108.7V310.1z"/>
	<path id="path-4-16" class="st2" d="M5052.5,310.1l187.2-109.5l186.6,109.5v214.3l-186.2,108.7l-187.7-108.7V310.1z"/>
	<path id="path-4-17" class="st2" d="M3305.7,645.9l187.2-109.5l186.6,109.5v214.3L3493.4,969l-187.7-108.7V645.9z"/>
	<path id="path-4-18" class="st2" d="M3694,645.9l187.2-109.5l186.6,109.5v214.3L3881.7,969L3694,860.3V645.9z"/>
	<path id="path-4-19" class="st2" d="M4082.4,645.9l187.2-109.5l186.6,109.5v214.3L4270,969l-187.7-108.7V645.9z"/>
	<path id="path-4-20" class="st2" d="M4470.7,645.9l187.2-109.5l186.6,109.5v214.3L4658.4,969l-187.7-108.7V645.9z"/>
	<path id="path-4-21" class="st2" d="M4859,645.9l187.2-109.5l186.6,109.5v214.3L5046.7,969L4859,860.3V645.9z"/>
	<path id="path-4-22" class="st2" d="M5247.4,645.9l187.2-109.5l186.6,109.5v214.3L5435,969l-187.7-108.7V645.9z"/>
	<path id="path-4-23" class="st2" d="M3499.8,980.5L3687,871l186.6,109.5v214.3l-186.2,108.7l-187.7-108.7V980.5z"/>
	<path id="path-4-24" class="st2" d="M3888.1,980.5L4075.3,871L4262,980.5v214.3l-186.2,108.7l-187.7-108.7V980.5z"/>
	<path id="path-4-25" class="st2" d="M4276.5,980.5L4463.6,871l186.6,109.5v214.3l-186.2,108.7l-187.7-108.7V980.5z"/>
	<path id="path-4-26" class="st2" d="M4664.8,980.5L4852,871l186.6,109.5v214.3l-186.2,108.7l-187.7-108.7V980.5z"/>
	<path id="path-4-27" class="st2" d="M5053.1,980.5L5240.3,871l186.6,109.5v214.3l-186.2,108.7l-187.7-108.7V980.5z"/>
	<path id="path-4-28" class="st2" d="M5439-360.7l187.2-109.5l186.6,109.5v214.3L5626.7-37.6L5439-146.4V-360.7z"/>
	<path id="path-4-29" class="st2" d="M5827.3-360.7l187.2-109.5l186.6,109.5v214.3L6015-37.6l-187.7-108.7V-360.7z"/>
	<path id="path-4-30" class="st2" d="M6215.7-360.7l187.2-109.5l186.6,109.5v214.3L6403.3-37.6l-187.7-108.7V-360.7z"/>
	<path id="path-4-31" class="st2" d="M6604-360.7l187.2-109.5l186.6,109.5v214.3L6791.7-37.6L6604-146.4V-360.7z"/>
	<path id="path-4-32" class="st2" d="M6992.3-360.7l187.2-109.5l186.6,109.5v214.3L7180-37.6l-187.7-108.7V-360.7z"/>
	<path id="path-4-33" class="st2" d="M7380.7-360.7l187.2-109.5l186.6,109.5v214.3L7568.3-37.6l-187.7-108.7V-360.7z"/>
	<path id="path-4-34" class="st2" d="M5633.9-24.9L5821-134.4l186.6,109.5v214.3l-186.2,108.7l-187.7-108.7V-24.9z"/>
	<path id="path-4-35" class="st2" d="M6022.2-24.9l187.2-109.5L6396-24.9v214.3l-186.2,108.7l-187.7-108.7V-24.9z"/>
	<path id="path-4-36" class="st2" d="M6410.5-24.9l187.2-109.5l186.6,109.5v214.3l-186.2,108.7l-187.7-108.7V-24.9z"/>
	<path id="path-4-37" class="st2" d="M6798.8-24.9L6986-134.4l186.6,109.5v214.3l-186.2,108.7l-187.7-108.7V-24.9z"/>
	<path id="path-4-38" class="st2" d="M7187.2-24.9l187.2-109.5L7561-24.9v214.3l-186.2,108.7l-187.7-108.7V-24.9z"/>
	<path id="path-4-39" class="st2" d="M5440.4,310.9l187.2-109.5l186.6,109.5v214.3L5628,634l-187.7-108.7V310.9z"/>
	<path id="path-4-40" class="st2" d="M5828.7,310.9l187.2-109.5l186.6,109.5v214.3L6016.4,634l-187.7-108.7V310.9z"/>
	<path id="path-4-41" class="st2" d="M6217,310.9l187.2-109.5l186.6,109.5v214.3L6404.7,634L6217,525.3V310.9z"/>
	<path id="path-4-42" class="st2" d="M6605.4,310.9l187.2-109.5l186.6,109.5v214.3L6793,634l-187.7-108.7V310.9z"/>
	<path id="path-4-43" class="st2" d="M6993.7,310.9l187.2-109.5l186.6,109.5v214.3L7181.4,634l-187.7-108.7V310.9z"/>
	<path id="path-4-44" class="st2" d="M7382,310.9l187.2-109.5l186.6,109.5v214.3L7569.7,634L7382,525.3V310.9z"/>
	<path id="path-4-45" class="st2" d="M5634.5,645.5L5821.6,536l186.6,109.5v214.3l-186.2,108.7l-187.7-108.7V645.5z"/>
	<path id="path-4-46" class="st2" d="M6022.8,645.5L6210,536l186.6,109.5v214.3l-186.2,108.7l-187.7-108.7V645.5z"/>
	<path id="path-4-47" class="st2" d="M6411.1,645.5L6598.3,536L6785,645.5v214.3l-186.2,108.7l-187.7-108.7V645.5z"/>
	<path id="path-4-48" class="st2" d="M6799.5,645.5L6986.6,536l186.6,109.5v214.3l-186.2,108.7l-187.7-108.7V645.5z"/>
	<path id="path-4-49" class="st2" d="M7187.8,645.5L7375,536l186.6,109.5v214.3l-186.2,108.7l-187.7-108.7V645.5z"/>
	<path id="path-4-50" class="st2" d="M5439.4,980.9l187.2-109.5l186.6,109.5v214.3L5627,1304l-187.7-108.7V980.9z"/>
	<path id="path-4-51" class="st2" d="M5827.7,980.9l187.2-109.5l186.6,109.5v214.3L6015.4,1304l-187.7-108.7V980.9z"/>
	<path id="path-4-52" class="st2" d="M6216,980.9l187.2-109.5l186.6,109.5v214.3L6403.7,1304L6216,1195.3V980.9z"/>
	<path id="path-4-53" class="st2" d="M6604.4,980.9l187.2-109.5l186.6,109.5v214.3L6792,1304l-187.7-108.7V980.9z"/>
	<path id="path-4-54" class="st2" d="M6992.7,980.9l187.2-109.5l186.6,109.5v214.3L7180.4,1304l-187.7-108.7V980.9z"/>
	<path id="path-4-55" class="st2" d="M7381,980.9l187.2-109.5l186.6,109.5v214.3L7568.7,1304L7381,1195.3V980.9z"/>
	<path id="path-4-56" class="st2" d="M3305.5,1316.5l187.2-109.5l186.6,109.5v214.3l-186.2,108.7l-187.7-108.7V1316.5z"/>
	<path id="path-4-57" class="st2" d="M3693.8,1316.5L3881,1207l186.6,109.5v214.3l-186.2,108.7l-187.7-108.7V1316.5z"/>
	<path id="path-4-58" class="st2" d="M4082.1,1316.5l187.2-109.5l186.6,109.5v214.3l-186.2,108.7l-187.7-108.7V1316.5z"/>
	<path id="path-4-59" class="st2" d="M4470.5,1316.5l187.2-109.5l186.6,109.5v214.3l-186.2,108.7l-187.7-108.7V1316.5z"/>
	<path id="path-4-60" class="st2" d="M4858.8,1316.5L5046,1207l186.6,109.5v214.3l-186.2,108.7l-187.7-108.7V1316.5z"/>
	<path id="path-4-61" class="st2" d="M3500,1652.5l187.2-109.5l186.6,109.5v214.3l-186.2,108.7L3500,1866.8V1652.5z"/>
	<path id="path-4-62" class="st2" d="M3888.3,1652.5l187.2-109.5l186.6,109.5v214.3L4076,1975.6l-187.7-108.7V1652.5z"/>
	<path id="path-4-63" class="st2" d="M4276.7,1652.5l187.2-109.5l186.6,109.5v214.3l-186.2,108.7l-187.7-108.7V1652.5z"/>
	<path id="path-4-64" class="st2" d="M4665,1652.5l187.2-109.5l186.6,109.5v214.3l-186.2,108.7L4665,1866.8V1652.5z"/>
	<path id="path-4-65" class="st2" d="M5053.3,1652.5l187.2-109.5l186.6,109.5v214.3L5241,1975.6l-187.7-108.7V1652.5z"/>
	<path id="path-4-66" class="st2" d="M5441.7,1652.5l187.2-109.5l186.6,109.5v214.3l-186.2,108.7l-187.7-108.7V1652.5z"/>
	<path id="path-4-67" class="st2" d="M7187.8,2658.9l187.2-109.5l186.6,109.5v214.3L7375.5,2982l-187.7-108.7V2658.9z"/>
	<path id="path-4-68" class="st2" d="M6799.5,2658.9l187.2-109.5l186.6,109.5v214.3L6987.2,2982l-187.7-108.7V2658.9z"/>
	<path id="path-4-69" class="st2" d="M6411.2,2658.9l187.2-109.5l186.6,109.5v214.3L6598.8,2982l-187.7-108.7V2658.9z"/>
	<path id="path-4-70" class="st2" d="M6022.9,2658.9l187.2-109.5l186.6,109.5v214.3L6210.5,2982l-187.7-108.7V2658.9z"/>
	<path id="path-4-71" class="st2" d="M5634.5,2658.9l187.2-109.5l186.6,109.5v214.3L5822.2,2982l-187.7-108.7V2658.9z"/>
	<path id="path-4-72" class="st2" d="M7381.3,2323.1l187.2-109.5l186.6,109.5v214.3L7569,2646.2l-187.7-108.7V2323.1z"/>
	<path id="path-4-73" class="st2" d="M6993,2323.1l187.2-109.5l186.6,109.5v214.3l-186.2,108.7L6993,2537.5V2323.1z"/>
	<path id="path-4-74" class="st2" d="M6604.7,2323.1l187.2-109.5l186.6,109.5v214.3l-186.2,108.7l-187.7-108.7V2323.1z"/>
	<path id="path-4-75" class="st2" d="M6216.3,2323.1l187.2-109.5l186.6,109.5v214.3L6404,2646.2l-187.7-108.7V2323.1z"/>
	<path id="path-4-76" class="st2" d="M5828,2323.1l187.2-109.5l186.6,109.5v214.3l-186.2,108.7L5828,2537.5V2323.1z"/>
	<path id="path-4-77" class="st2" d="M5439.7,2323.1l187.2-109.5l186.6,109.5v214.3l-186.2,108.7l-187.7-108.7V2323.1z"/>
	<path id="path-4-78" class="st2" d="M7187.2,1988.6l187.2-109.5l186.6,109.5v214.3l-186.2,108.7l-187.7-108.7V1988.6z"/>
	<path id="path-4-79" class="st2" d="M6798.9,1988.6l187.2-109.5l186.6,109.5v214.3l-186.2,108.7l-187.7-108.7V1988.6z"/>
	<path id="path-4-80" class="st2" d="M6410.6,1988.6l187.2-109.5l186.6,109.5v214.3l-186.2,108.7l-187.7-108.7V1988.6z"/>
	<path id="path-4-81" class="st2" d="M6022.2,1988.6l187.2-109.5l186.6,109.5v214.3l-186.2,108.7l-187.7-108.7V1988.6z"/>
	<path id="path-4-82" class="st2" d="M5633.9,1988.6l187.2-109.5l186.6,109.5v214.3l-186.2,108.7l-187.7-108.7V1988.6z"/>
	<path id="path-4-83" class="st2" d="M5246.7,1317.3l187.2-109.5l186.6,109.5v214.3l-186.2,108.7l-187.7-108.7V1317.3z"/>
	<path id="path-4-84" class="st2" d="M5635,1317.3l187.2-109.5l186.6,109.5v214.3l-186.2,108.7L5635,1531.6V1317.3z"/>
	<path id="path-4-85" class="st2" d="M6023.3,1317.3l187.2-109.5l186.6,109.5v214.3L6211,1640.4l-187.7-108.7V1317.3z"/>
	<path id="path-4-86" class="st2" d="M6411.7,1317.3l187.2-109.5l186.6,109.5v214.3l-186.2,108.7l-187.7-108.7V1317.3z"/>
	<path id="path-4-87" class="st2" d="M6800,1317.3l187.2-109.5l186.6,109.5v214.3l-186.2,108.7L6800,1531.6V1317.3z"/>
	<path id="path-4-88" class="st2" d="M7188.3,1317.3l187.2-109.5l186.6,109.5v214.3L7376,1640.4l-187.7-108.7V1317.3z"/>
	<path id="path-4-89" class="st2" d="M5829.5,1653.3l187.2-109.5l186.6,109.5v214.3l-186.2,108.7l-187.7-108.7V1653.3z"/>
	<path id="path-4-90" class="st2" d="M6217.9,1653.3l187.2-109.5l186.6,109.5v214.3l-186.2,108.7l-187.7-108.7V1653.3z"/>
	<path id="path-4-91" class="st2" d="M6606.2,1653.3l187.2-109.5l186.6,109.5v214.3l-186.2,108.7l-187.7-108.7V1653.3z"/>
	<path id="path-4-92" class="st2" d="M6994.5,1653.3l187.2-109.5l186.6,109.5v214.3l-186.2,108.7l-187.7-108.7V1653.3z"/>
	<path id="path-4-93" class="st2" d="M7382.8,1653.3l187.2-109.5l186.6,109.5v214.3l-186.2,108.7l-187.7-108.7V1653.3z"/>
	<path id="path-4-94" class="st2" d="M5246.7,2658.1l187.2-109.5l186.6,109.5v214.3l-186.2,108.7l-187.7-108.7V2658.1z"/>
	<path id="path-4-95" class="st2" d="M4858.3,2658.1l187.2-109.5l186.6,109.5v214.3L5046,2981.2l-187.7-108.7V2658.1z"/>
	<path id="path-4-96" class="st2" d="M4470,2658.1l187.2-109.5l186.6,109.5v214.3l-186.2,108.7L4470,2872.5V2658.1z"/>
	<path id="path-4-97" class="st2" d="M4081.7,2658.1l187.2-109.5l186.6,109.5v214.3l-186.2,108.7l-187.7-108.7V2658.1z"/>
	<path id="path-4-98" class="st2" d="M3693.3,2658.1l187.2-109.5l186.6,109.5v214.3L3881,2981.2l-187.7-108.7V2658.1z"/>
	<path id="path-4-99" class="st2" d="M3305,2658.1l187.2-109.5l186.6,109.5v214.3l-186.2,108.7L3305,2872.5V2658.1z"/>
	<path id="path-4-100" class="st2" d="M5052.6,2323.6l187.2-109.5l186.6,109.5v214.3l-186.2,108.7l-187.7-108.7V2323.6z"/>
	<path id="path-4-101" class="st2" d="M4664.2,2323.6l187.2-109.5l186.6,109.5v214.3l-186.2,108.7l-187.7-108.7V2323.6z"/>
	<path id="path-4-102" class="st2" d="M4275.9,2323.6l187.2-109.5l186.6,109.5v214.3l-186.2,108.7l-187.7-108.7V2323.6z"/>
	<path id="path-4-103" class="st2" d="M3887.6,2323.6l187.2-109.5l186.6,109.5v214.3l-186.2,108.7l-187.7-108.7V2323.6z"/>
	<path id="path-4-104" class="st2" d="M3499.2,2323.6l187.2-109.5l186.6,109.5v214.3l-186.2,108.7l-187.7-108.7V2323.6z"/>
	<path id="path-4-105" class="st2" d="M5247.7,1988.1l187.2-109.5l186.6,109.5v214.3l-186.2,108.7l-187.7-108.7V1988.1z"/>
	<path id="path-4-106" class="st2" d="M4859.3,1988.1l187.2-109.5l186.6,109.5v214.3L5047,2311.2l-187.7-108.7V1988.1z"/>
	<path id="path-4-107" class="st2" d="M4471,1988.1l187.2-109.5l186.6,109.5v214.3l-186.2,108.7L4471,2202.5V1988.1z"/>
	<path id="path-4-108" class="st2" d="M4082.7,1988.1l187.2-109.5l186.6,109.5v214.3l-186.2,108.7l-187.7-108.7V1988.1z"/>
	<path id="path-4-109" class="st2" d="M3694.3,1988.1l187.2-109.5l186.6,109.5v214.3L3882,2311.2l-187.7-108.7V1988.1z"/>
	<path id="path-4-110" class="st2" d="M3306,1988.1l187.2-109.5l186.6,109.5v214.3l-186.2,108.7L3306,2202.5V1988.1z"/>
</g>
</svg>
