
<svg xmlns="http://www.w3.org/2000/svg" version="1.1" xmlns:xlink="http://www.w3.org/1999/xlink" preserveAspectRatio="none" x="0px" y="0px" width="142px" height="142px" viewBox="0 0 142 142">
<defs>
<g id="Mask_11_MASK_0_FILL">
<path fill="#FFFFFF" stroke="none" d="
M 314.45 409.8
Q 296.55 409.8 283.85 422.45 271.2 435.15 271.2 453.05 271.2 470.95 283.85 483.6 296.55 496.3 314.45 496.3 332.35 496.3 345 483.6 357.7 470.95 357.7 453.05 357.7 435.15 345 422.45 332.35 409.8 314.45 409.8 Z"/>
</g>

<path id="Layer27_0_1_STROKES" stroke="#221914" stroke-width="12" stroke-linejoin="miter" stroke-linecap="butt" stroke-miterlimit="10" fill="none" d="
M 91.67365722656251 70.39135437011718
Q 91.67365722656251 78.82289428710938 85.71116638183594 84.78538513183594 79.74867553710938 90.72160949707032 71.34340209960938 90.72160949707032 62.93812866210937 90.72160949707032 56.97563781738281 84.78538513183594 51.03941345214844 78.82289428710938 51.03941345214844 70.39135437011718 51.03941345214844 61.986080932617185 56.97563781738281 56.023590087890625 62.93812866210937 50.08736572265625 71.34340209960938 50.08736572265625 79.74867553710938 50.08736572265625 85.71116638183594 56.023590087890625 91.67365722656251 61.986080932617185 91.67365722656251 70.39135437011718 Z"/>

<path id="Eneagono_0_Layer0_0_1_STROKES" stroke="#221914" stroke-width="3" stroke-linejoin="miter" stroke-linecap="butt" stroke-miterlimit="10" fill="none" d="
M 95.05 216.15
L 50.75 178.95 40.7 122.05 69.65 71.95 123.95 52.2 178.3 71.95 207.2 122.05 197.15 178.95 152.85 216.15 95.05 216.15 Z"/>

<path id="Eneagono_0_Layer0_1_1_STROKES" stroke="#221914" stroke-width="3" stroke-linejoin="miter" stroke-linecap="butt" stroke-miterlimit="10" fill="none" d="
M 52.45 178.35
L 124.05 54.3 195.7 178.35 52.45 178.35 Z"/>

<path id="S_mbolo_26_0_Layer0_0_1_STROKES" stroke="#FFFFFF" stroke-width="6" stroke-linejoin="round" stroke-linecap="round" fill="none" d="
M 0 29.45
Q 0 41.6 8.65 50.2 17.25 58.85 29.4 58.85 41.6 58.85 50.2 50.2 53.35 47.05 55.35 43.5 58.85 37.15 58.85 29.45 58.85 21.7 55.35 15.4 53.35 11.8 50.2 8.65 41.6 0 29.4 0 17.25 0 8.65 8.65 0 17.25 0 29.45 Z"/>

<path id="S_mbolo_25_0_Layer0_0_1_STROKES" stroke="#FFFFFF" stroke-width="6" stroke-linejoin="round" stroke-linecap="round" fill="none" d="
M 0 29.45
Q 0 41.6 8.65 50.2 17.25 58.85 29.4 58.85 41.6 58.85 50.2 50.2 53.35 47.05 55.35 43.5 58.85 37.15 58.85 29.45 58.85 21.7 55.35 15.4 53.35 11.8 50.2 8.65 41.6 0 29.4 0 17.25 0 8.65 8.65 0 17.25 0 29.45 Z"/>

<path id="S_mbolo_22_0_Layer0_0_1_STROKES" stroke="#FFFFFF" stroke-width="6" stroke-linejoin="round" stroke-linecap="round" fill="none" d="
M 0 29.45
Q 0 41.6 8.65 50.2 17.25 58.85 29.4 58.85 41.6 58.85 50.2 50.2 53.35 47.05 55.35 43.5 58.85 37.15 58.85 29.45 58.85 21.7 55.35 15.4 53.35 11.8 50.2 8.65 41.6 0 29.4 0 17.25 0 8.65 8.65 0 17.25 0 29.45 Z"/>

<path id="S_mbolo_41_0_Layer0_0_1_STROKES" stroke="#FFFFFF" stroke-width="6" stroke-linejoin="round" stroke-linecap="round" fill="none" d="
M 355.45 394.15
L 360.4 395.85
Q 366.6 398.4 372.85 402.6 392.8 415.95 405.6 440.55"/>

<path id="S_mbolo_40_0_Layer0_0_1_STROKES" stroke="#FFFFFF" stroke-width="6" stroke-linejoin="round" stroke-linecap="round" fill="none" d="
M 332.7 434.65
L 337.25 432.9
Q 343.25 430.95 350.5 430.25 373.6 427.95 400.1 438.55"/>

<path id="S_mbolo_38_0_Layer0_0_1_STROKES" stroke="#FFFFFF" stroke-width="6" stroke-linejoin="round" stroke-linecap="round" fill="none" d="
M 340.25 481.95
Q 343.15 475.35 351.45 466.9 368.05 450 395.15 440.8"/>

<path id="S_mbolo_39_0_Layer0_0_1_STROKES" stroke="#FFFFFF" stroke-width="6" stroke-linejoin="round" stroke-linecap="round" fill="none" d="
M 376.65 512.1
Q 375.05 504.5 376.2 492.35 378.55 468.1 392.4 445.5"/>

<path id="S_mbolo_37_0_Layer0_0_1_STROKES" stroke="#FFFFFF" stroke-width="6" stroke-linejoin="round" stroke-linecap="round" fill="none" d="
M 424.8 511.8
Q 418.45 507.65 411.3 498 397.05 478.7 393.15 451.25"/>

<path id="S_mbolo_36_0_Layer0_0_1_STROKES" stroke="#FFFFFF" stroke-width="6" stroke-linejoin="round" stroke-linecap="round" fill="none" d="
M 460.75 480.45
Q 454.45 481.9 443.4 479.4 421.3 474.35 397.4 454.55"/>

<path id="S_mbolo_35_0_Layer0_0_1_STROKES" stroke="#FFFFFF" stroke-width="6" stroke-linejoin="round" stroke-linecap="round" fill="none" d="
M 468.2 431.85
Q 466.1 436.95 456.95 442.35 438.6 453.15 403.35 454.55"/>

<path id="S_mbolo_34_0_Layer0_0_1_STROKES" stroke="#FFFFFF" stroke-width="6" stroke-linejoin="round" stroke-linecap="round" fill="none" d="
M 443.55 393.15
L 443.35 397.75
Q 442.7 403.7 440.1 410.25 431.85 431.2 407.85 450.5"/>

<path id="S_mbolo_33_0_Layer0_0_1_STROKES" stroke="#FFFFFF" stroke-width="6" stroke-linejoin="miter" stroke-linecap="round" stroke-miterlimit="3" fill="none" d="
M 400.35 377.95
L 402.85 382.45
Q 405.8 388.45 407.75 395.6 414.05 418.6 408.6 445.25"/>

<path id="Layer2_0_1_STROKES" stroke="#FFFFFF" stroke-width="6" stroke-linejoin="round" stroke-linecap="round" fill="none" d="
M 71.59073791503906 68.67898788452149
L 72.7069808959961 69.09521408081055 73.3029411315918 70.1263198852539 73.09482803344727 71.29932098388673 72.17723846435547 72.05609588623048 70.99477767944336 72.05609588623048 70.07718811035156 71.29932098388673 69.86907501220703 70.1263198852539 70.46503524780273 69.09521408081055 71.59073791503906 68.67898788452149 Z"/>
</defs>

<g transform="matrix( 0.52532958984375, 0, 0, 0.52532958984375, 6.15,-1.5) ">
<use xlink:href="#Layer27_0_1_STROKES" transform="matrix( 1.903564453125, 0, 0, 1.903564453125, -11.7,2.85) "/>
</g>

<g transform="matrix( 0.520965576171875, 0, 0, 0.520965576171875, 27.9,26.1) ">
<g transform="matrix( 1, 0, 0, 1, -40.7,-52.2) ">
<use xlink:href="#Eneagono_0_Layer0_0_1_STROKES"/>
</g>

<g transform="matrix( 1, 0, 0, 1, -40.7,-52.2) ">
<use xlink:href="#Eneagono_0_Layer0_1_1_STROKES"/>
</g>
</g>

<g transform="matrix( -0.14306640625, -0.2478179931640625, 0.2478179931640625, -0.14306640625, 68.45,22.65) ">
<g transform="matrix( 1, 0, 0, 1, 0,0) ">
<use xlink:href="#S_mbolo_26_0_Layer0_0_1_STROKES"/>
</g>
</g>

<g transform="matrix( -0.14306640625, -0.2478179931640625, 0.2478179931640625, -0.14306640625, 120,112.1) ">
<g transform="matrix( 1, 0, 0, 1, 0,0) ">
<use xlink:href="#S_mbolo_25_0_Layer0_0_1_STROKES"/>
</g>
</g>

<g transform="matrix( -0.14306640625, -0.2478179931640625, 0.2478179931640625, -0.14306640625, 17.15,112.05) ">
<g transform="matrix( 1, 0, 0, 1, 0,0) ">
<use xlink:href="#S_mbolo_22_0_Layer0_0_1_STROKES"/>
</g>
</g>

<mask id="Mask_Mask_1">
<g transform="matrix( 0.4569091796875, 0, 0, 0.4569091796875, -72.2,-136.45) ">
<use xlink:href="#Mask_11_MASK_0_FILL"/>
</g>
</mask>

<g mask="url(#Mask_Mask_1)">
<g transform="matrix( 0.23419189453125, 0, 0, 0.23419189453125, 56.65,55.45) ">
<g transform="matrix( 1, 0, 0, 1, -355.45,-394.15) ">
<use xlink:href="#S_mbolo_41_0_Layer0_0_1_STROKES"/>
</g>
</g>
</g>

<g mask="url(#Mask_Mask_1)">
<g transform="matrix( 0.23291015625, 0, 0, 0.23291015625, 50.5,67.3) ">
<g transform="matrix( 1, 0, 0, 1, -332.7,-429.85) ">
<use xlink:href="#S_mbolo_40_0_Layer0_0_1_STROKES"/>
</g>
</g>
</g>

<g mask="url(#Mask_Mask_1)">
<g transform="matrix( 0.2330474853515625, -0.0000152587890625, 0.0000152587890625, 0.2330474853515625, 54,72.25) ">
<g transform="matrix( 1, 0, 0, 1, -340.25,-440.8) ">
<use xlink:href="#S_mbolo_38_0_Layer0_0_1_STROKES"/>
</g>
</g>
</g>

<g mask="url(#Mask_Mask_1)">
<g transform="matrix( 0.234649658203125, 0, 0, 0.234649658203125, 65.3,71.8) ">
<g transform="matrix( 1, 0, 0, 1, -375.7,-445.5) ">
<use xlink:href="#S_mbolo_39_0_Layer0_0_1_STROKES"/>
</g>
</g>
</g>

<g mask="url(#Mask_Mask_1)">
<g transform="matrix( 0.233795166015625, 0, 0, 0.233795166015625, 72.1,74.65) ">
<g transform="matrix( 1, 0, 0, 1, -393.15,-451.25) ">
<use xlink:href="#S_mbolo_37_0_Layer0_0_1_STROKES"/>
</g>
</g>
</g>

<g mask="url(#Mask_Mask_1)">
<g transform="matrix( 0.230133056640625, 0, 0, 0.230133056640625, 75.35,71.85) ">
<g transform="matrix( 1, 0, 0, 1, -397.4,-454.55) ">
<use xlink:href="#S_mbolo_36_0_Layer0_0_1_STROKES"/>
</g>
</g>
</g>

<g mask="url(#Mask_Mask_1)">
<g transform="matrix( 0.2295684814453125, 0, 0, 0.2295684814453125, 75.75,64.15) ">
<g transform="matrix( 1, 0, 0, 1, -403.35,-431.85) ">
<use xlink:href="#S_mbolo_35_0_Layer0_0_1_STROKES"/>
</g>
</g>
</g>

<g mask="url(#Mask_Mask_1)">
<g transform="matrix( 0.2337188720703125, 0, 0, 0.2337188720703125, 73.45,53.25) ">
<g transform="matrix( 1, 0, 0, 1, -407.85,-393.15) ">
<use xlink:href="#S_mbolo_34_0_Layer0_0_1_STROKES"/>
</g>
</g>
</g>

<g mask="url(#Mask_Mask_1)">
<g transform="matrix( 0.2340850830078125, -0.0000152587890625, 0.0000152587890625, 0.2340850830078125, 70.05,49.55) ">
<g transform="matrix( 1, 0, 0, 1, -400.35,-377.95) ">
<use xlink:href="#S_mbolo_33_0_Layer0_0_1_STROKES"/>
</g>
</g>
</g>

<g mask="url(#Mask_Mask_1)">
<g transform="matrix( 0.1891937255859375, 0, 0, 0.1891937255859375, 7,-13.1) ">
<use xlink:href="#Layer2_0_1_STROKES" transform="matrix( 5.28558349609375, 0, 0, 5.28558349609375, -37,69.25) "/>
</g>
</g>
</svg>
