<?xml version="1.0" encoding="UTF-8"?>
<!DOCTYPE svg PUBLIC "-//W3C//DTD SVG 1.1//EN" "http://www.w3.org/Graphics/SVG/1.1/DTD/svg11.dtd">
<!-- Creator: CorelDRAW X7 -->
<svg xmlns="http://www.w3.org/2000/svg" xml:space="preserve" width="2.14508in" height="0.504118in" version="1.1" style="shape-rendering:geometricPrecision; text-rendering:geometricPrecision; image-rendering:optimizeQuality; fill-rule:evenodd; clip-rule:evenodd"
viewBox="0 0 597 140"
 xmlns:xlink="http://www.w3.org/1999/xlink">
 <defs>
  <style type="text/css">
   <![CDATA[
    .fil0 {fill:#373435;fill-rule:nonzero}
   ]]>
  </style>
 </defs>
 <g id="Capa_x0020_1">
  <metadata id="CorelCorpID_0Corel-Layer"/>
  <polygon class="fil0" points="0,140 0,1 48,1 48,45 89,45 89,1 136,1 136,139 91,139 91,94 48,94 48,140 "/>
  <polygon class="fil0" points="156,0 285,0 285,46 244,46 244,140 197,140 197,47 156,47 "/>
  <polygon class="fil0" points="305,1 354,1 383,47 412,0 462,0 462,139 416,139 416,75 384,121 350,72 350,139 305,139 "/>
  <polygon class="fil0" points="484,1 532,1 532,93 597,93 597,140 486,140 "/>
 </g>
</svg>
