<?xml version="1.0" encoding="UTF-8"?>
<!DOCTYPE svg PUBLIC "-//W3C//DTD SVG 1.1//EN" "http://www.w3.org/Graphics/SVG/1.1/DTD/svg11.dtd">
<!-- Creator: CorelDRAW X7 -->
<svg xmlns="http://www.w3.org/2000/svg" xml:space="preserve" width="1.7413in" height="1.64378in" version="1.1" style="shape-rendering:geometricPrecision; text-rendering:geometricPrecision; image-rendering:optimizeQuality; fill-rule:evenodd; clip-rule:evenodd"
viewBox="0 0 1410 1331"
 xmlns:xlink="http://www.w3.org/1999/xlink">
 <defs>
  <style type="text/css">
   <![CDATA[
    .fil0 {fill:#0868AA;fill-rule:nonzero}
    .fil1 {fill:#0968AB;fill-rule:nonzero}
   ]]>
  </style>
 </defs>
 <g id="Capa_x0020_1">
  <metadata id="CorelCorpID_0Corel-Layer"/>
  <path class="fil0" d="M1373 980c-13,31 -29,59 -49,86 -107,144 -248,232 -426,256 -266,37 -494,-42 -681,-235 -109,-112 -181,-245 -207,-401 -27,-161 0,-309 103,-440 10,-12 21,-24 31,-36 3,-3 5,-7 12,-7 0,19 -6,37 -9,56 -23,130 -21,260 24,386 47,135 133,240 244,326 78,61 161,114 255,146 184,61 367,58 545,-24 59,-28 111,-67 158,-113z"/>
  <path class="fil0" d="M1410 624c-37,87 -97,153 -180,198 -205,112 -463,77 -636,-86 -72,-68 -130,-145 -158,-241 -29,-101 -32,-202 9,-301 17,-42 42,-79 71,-113 1,-2 2,-4 6,-3 -3,19 -7,38 -9,57 -17,132 1,257 78,369 53,78 125,135 206,181 62,35 126,63 196,73 156,24 291,-17 404,-128 3,-3 7,-6 10,-9 2,-1 4,0 3,3z"/>
  <path class="fil1" d="M827 0c-3,25 -6,49 -6,74 3,100 44,181 119,246 48,41 101,72 162,89 82,22 159,11 235,-24 3,-2 6,-3 12,-6 -11,21 -24,36 -39,50 -47,45 -105,64 -170,66 -75,2 -146,-12 -210,-54 -87,-57 -142,-139 -161,-241 -14,-73 9,-139 52,-197 1,-1 2,-2 3,-3 0,0 1,0 3,0z"/>
 </g>
</svg>
