<?xml version="1.0" encoding="UTF-8"?>
<!DOCTYPE svg PUBLIC "-//W3C//DTD SVG 1.1//EN" "http://www.w3.org/Graphics/SVG/1.1/DTD/svg11.dtd">
<!-- Creator: CorelDRAW X7 -->
<svg xmlns="http://www.w3.org/2000/svg" xml:space="preserve" width="2.44837in" height="0.692728in" version="1.1" style="shape-rendering:geometricPrecision; text-rendering:geometricPrecision; image-rendering:optimizeQuality; fill-rule:evenodd; clip-rule:evenodd"
viewBox="0 0 2098 594"
 xmlns:xlink="http://www.w3.org/1999/xlink">
 <defs>
  <style type="text/css">
   <![CDATA[
    .fil0 {fill:#131A27;fill-rule:nonzero}
    .fil1 {fill:#141A27;fill-rule:nonzero}
    .fil2 {fill:#141B27;fill-rule:nonzero}
    .fil3 {fill:#1B222E;fill-rule:nonzero}
    .fil4 {fill:#FEFEFE;fill-rule:nonzero}
   ]]>
  </style>
 </defs>
 <g id="Capa_x0020_1">
  <metadata id="CorelCorpID_0Corel-Layer"/>
  <path class="fil0" d="M551 449c-49,1 -97,2 -146,-3 -63,-5 -109,-50 -115,-114 -9,-87 10,-168 62,-240 49,-69 120,-96 203,-92 53,3 99,22 132,66 32,44 38,93 25,145 -12,47 -27,92 -45,137 -3,10 -1,13 9,13 9,0 19,1 28,1 7,0 8,2 7,8 -6,24 -12,48 -18,72 -1,7 -6,7 -11,7 -35,0 -69,0 -104,0 -9,0 -18,0 -27,0z"/>
  <path class="fil0" d="M1314 307c-34,0 -68,0 -102,0 -9,0 -12,3 -14,11 -5,25 6,40 33,43 18,2 37,3 55,3 37,1 74,1 111,1 10,0 12,4 10,13 -5,20 -10,41 -14,62 -1,7 -4,9 -11,9 -61,0 -123,4 -184,0 -11,-1 -22,-2 -32,-4 -47,-11 -74,-45 -70,-94 4,-57 16,-113 39,-166 8,-18 20,-35 36,-47 61,-48 130,-63 205,-39 48,16 71,54 67,104 -2,33 -9,64 -14,96 -2,9 -7,8 -13,8 -34,0 -68,0 -102,0z"/>
  <path class="fil1" d="M1101 99c-24,115 -48,227 -71,340 -2,7 -4,10 -12,10 -59,-1 -119,0 -179,-1 -60,-1 -92,-34 -90,-95 1,-45 11,-89 20,-133 7,-37 14,-75 23,-112 2,-7 5,-9 12,-9 24,0 47,0 71,0 9,-1 10,2 9,11 -3,44 -15,85 -25,128 -8,36 -12,72 -8,110 1,9 4,13 14,12 25,-1 51,0 76,0 8,0 11,-2 13,-10 17,-79 34,-158 51,-237 3,-11 7,-15 18,-14 25,1 51,0 78,0z"/>
  <path class="fil2" d="M2098 46c-25,45 -55,84 -85,122 -45,58 -93,114 -129,177 -18,30 -32,60 -43,93 -1,4 -2,10 -9,10 -32,-1 -64,-1 -98,-1 8,-19 15,-37 17,-56 4,-35 -5,-69 -15,-102 -7,-23 -13,-47 -20,-70 -2,-9 0,-12 10,-12 27,0 54,0 81,0 8,0 12,2 14,10 4,14 8,28 13,43 6,-1 7,-7 10,-10 44,-65 89,-129 133,-194 5,-7 10,-10 19,-10 33,0 67,0 102,0z"/>
  <path class="fil2" d="M1650 97c23,1 63,-2 102,2 31,3 45,16 53,46 10,39 10,39 -30,39 -54,0 -109,0 -163,0 -12,-1 -15,3 -17,13 -16,78 -33,156 -49,235 -3,13 -7,17 -21,17 -22,-2 -45,-1 -67,-1 -8,1 -11,0 -9,-10 24,-110 47,-221 70,-331 2,-8 5,-10 13,-10 34,0 68,0 118,0z"/>
  <path class="fil2" d="M0 590c6,-26 12,-52 18,-77 1,-5 4,-8 9,-8 10,-1 20,-4 30,-4 12,1 18,-5 24,-15 22,-41 31,-85 40,-130 8,-47 15,-94 31,-139 3,-9 7,-11 17,-11 26,1 52,0 77,0 7,0 9,1 8,8 -23,97 -41,195 -68,290 -2,6 -4,11 -5,16 -16,48 -50,71 -99,73 -27,1 -54,1 -82,-3z"/>
  <path class="fil3" d="M210 179c-15,0 -29,0 -43,0 -7,0 -8,-2 -6,-9 5,-21 10,-43 15,-64 1,-6 4,-8 10,-8 28,0 55,0 83,0 7,0 9,2 7,9 -5,21 -9,43 -14,65 -1,6 -5,7 -10,7 -14,0 -28,0 -42,0z"/>
  <path class="fil4" d="M506 359c-18,-1 -39,2 -60,-3 -34,-8 -52,-32 -49,-66 4,-48 16,-95 35,-140 25,-60 106,-69 147,-43 24,15 38,46 32,76 -11,57 -29,113 -44,169 -1,7 -5,7 -10,7 -16,0 -32,0 -51,0z"/>
  <path class="fil4" d="M1216 230c18,-57 68,-62 104,-49 17,7 26,24 22,43 -1,6 -4,7 -9,6 -1,0 -3,0 -4,0 -37,0 -74,0 -113,0z"/>
 </g>
</svg>
