<?xml version="1.0" encoding="UTF-8"?>
<!DOCTYPE svg PUBLIC "-//W3C//DTD SVG 1.1//EN" "http://www.w3.org/Graphics/SVG/1.1/DTD/svg11.dtd">
<!-- Creator: CorelDRAW X7 -->
<svg xmlns="http://www.w3.org/2000/svg" xml:space="preserve" width="2.54443in" height="0.980331in" version="1.1" style="shape-rendering:geometricPrecision; text-rendering:geometricPrecision; image-rendering:optimizeQuality; fill-rule:evenodd; clip-rule:evenodd"
viewBox="0 0 867 334"
 xmlns:xlink="http://www.w3.org/1999/xlink">
 <defs>
  <style type="text/css">
   <![CDATA[
    .fil0 {fill:#ffffff;fill-rule:nonzero}
   ]]>
  </style>
 </defs>
 <g id="Capa_x0020_1">
  <metadata id="CorelCorpID_0Corel-Layer"/>
  <path class="fil0" d="M584 0c17,9 33,18 50,27 4,3 6,6 6,11 0,79 0,158 0,237 0,5 -2,8 -6,10 -27,16 -54,32 -82,47 -3,2 -7,2 -11,0 -27,-15 -54,-31 -82,-47 -4,-2 -5,-5 -5,-10 0,-31 0,-63 0,-94 0,-5 2,-8 5,-10 28,-16 55,-32 82,-47 4,-3 8,-2 11,0 7,3 13,7 19,10 5,3 7,2 7,-4 0,-41 0,-82 0,-123 0,-3 0,-6 3,-7 1,0 2,0 3,0zm-6 228l0 0c0,-5 -1,-10 0,-15 0,-2 -1,-3 -2,-4 -9,-5 -18,-10 -27,-16 -2,0 -3,-1 -4,0 -9,6 -18,11 -27,16 -2,1 -2,2 -2,3 0,11 0,21 0,32 0,1 0,2 2,3 9,5 18,10 27,15 1,1 2,1 4,0 9,-5 17,-10 26,-15 2,-1 3,-2 3,-4 -1,-5 0,-10 0,-15z"/>
  <path class="fil0" d="M0 175c1,-4 4,-6 7,-8 27,-15 53,-30 79,-45 5,-3 9,-3 14,0 27,15 53,31 80,46 4,2 6,6 6,10 0,39 0,78 0,117 0,3 0,7 0,11 0,4 -4,6 -8,4 -7,-4 -13,-7 -20,-11 -9,-5 -18,-11 -28,-16 -4,-2 -6,-6 -6,-11 0,-19 0,-38 0,-58 0,-4 -2,-8 -6,-10 -7,-4 -13,-7 -20,-11 -3,-2 -7,-2 -10,0 -7,4 -14,8 -21,11 -3,3 -5,6 -5,10 0,19 0,39 0,58 0,5 -2,8 -6,11 -16,9 -32,18 -48,27 -3,2 -6,1 -8,-2 0,-16 0,-31 0,-46 0,0 1,-1 0,-2 0,-28 0,-57 0,-85z"/>
  <path class="fil0" d="M867 205c-2,4 -5,6 -9,8 -15,8 -30,17 -45,26 -2,1 -4,2 -6,0 -2,-1 -3,-2 -3,-4 1,-8 0,-15 1,-22 0,-3 -2,-5 -4,-6 -8,-5 -16,-10 -24,-14 -3,-2 -5,-2 -7,0 -8,4 -16,9 -24,14 -3,1 -4,3 -4,5 0,10 1,19 0,29 0,3 2,4 4,6 27,15 54,31 81,46 2,1 4,2 4,4 0,3 -1,5 -3,6 -13,7 -26,14 -39,22 -3,1 -7,3 -10,5 -4,2 -7,2 -11,0 -27,-15 -54,-31 -81,-46 -4,-3 -6,-6 -6,-10 0,-32 0,-63 0,-95 0,-4 2,-7 6,-9 27,-16 54,-32 82,-48 3,-2 7,-2 11,0 27,16 54,32 81,48 3,1 4,3 6,6 0,10 0,19 0,29z"/>
 </g>
</svg>
