<?xml version="1.0" encoding="UTF-8"?>
<!DOCTYPE svg PUBLIC "-//W3C//DTD SVG 1.1//EN" "http://www.w3.org/Graphics/SVG/1.1/DTD/svg11.dtd">
<!-- Creator: CorelDRAW X7 -->
<svg xmlns="http://www.w3.org/2000/svg" xml:space="preserve" width="1.65777in" height="0.619031in" version="1.1" style="shape-rendering:geometricPrecision; text-rendering:geometricPrecision; image-rendering:optimizeQuality; fill-rule:evenodd; clip-rule:evenodd"
viewBox="0 0 448 167"
 xmlns:xlink="http://www.w3.org/1999/xlink">
 <defs>
  <style type="text/css">
   <![CDATA[
    .fil0 {fill:#669F63;fill-rule:nonzero}
   ]]>
  </style>
 </defs>
 <g id="Capa_x0020_1">
  <metadata id="CorelCorpID_0Corel-Layer"/>
  <path class="fil0" d="M147 84c0,12 0,24 0,36 0,4 -2,7 -5,9 -7,4 -13,8 -20,11 -7,4 -13,8 -20,12 -7,4 -15,8 -22,13 -2,1 -4,2 -6,2 -2,0 -3,0 -5,-1 -22,-12 -43,-25 -65,-37 -3,-2 -4,-5 -4,-8 0,-25 0,-50 0,-75 0,-3 2,-6 5,-8 10,-6 21,-12 31,-18 11,-6 22,-12 33,-19 3,-1 6,-1 9,0 9,5 17,11 26,15 13,8 25,15 38,22 4,2 5,5 5,9 0,12 0,24 0,37 0,0 0,0 0,0z"/>
  <path class="fil0" d="M420 83c0,-2 0,-4 -1,-6 0,-2 1,-2 2,-3 4,-2 7,-4 11,-6 1,-1 2,-1 3,0 4,2 8,4 12,6 1,1 1,2 1,3 0,4 0,8 0,13 0,1 -1,2 -2,2 -3,2 -7,5 -11,7 -1,0 -2,0 -3,0 -4,-2 -7,-5 -11,-7 -1,0 -2,-1 -2,-2 1,-2 1,-5 1,-7z"/>
 </g>
</svg>
