<?xml version="1.0" encoding="UTF-8"?>
<!DOCTYPE svg PUBLIC "-//W3C//DTD SVG 1.1//EN" "http://www.w3.org/Graphics/SVG/1.1/DTD/svg11.dtd">
<!-- Creator: CorelDRAW X7 -->
<svg xmlns="http://www.w3.org/2000/svg" xml:space="preserve" width="0.556776in" height="0.627724in" version="1.1" style="shape-rendering:geometricPrecision; text-rendering:geometricPrecision; image-rendering:optimizeQuality; fill-rule:evenodd; clip-rule:evenodd"
viewBox="0 0 56 63"
 xmlns:xlink="http://www.w3.org/1999/xlink">
 <defs>
  <style type="text/css">
   <![CDATA[
    .fil0 {fill:#669F63;fill-rule:nonzero}
   ]]>
  </style>
 </defs>
 <g id="Capa_x0020_1">
  <metadata id="CorelCorpID_0Corel-Layer"/>
  <path class="fil0" d="M27 63c-2,-1 -5,-2 -7,-4 -1,0 -2,-1 -2,-1 -1,0 -1,0 -1,-1 0,0 1,0 1,0 1,0 2,-1 3,-1 0,-1 1,0 1,0 2,1 4,2 5,3 1,0 1,0 2,0 7,-4 15,-9 22,-13 1,0 1,-1 1,-1 0,-9 0,-18 0,-26 0,-1 0,-1 -1,-2 -7,-4 -15,-8 -22,-12 -1,-1 -1,-1 -2,0 -7,4 -15,8 -22,12 -1,1 -1,1 -1,2 0,8 0,17 0,26 0,0 0,1 1,1 2,1 4,2 6,3 0,1 1,1 2,1 2,0 3,-1 3,-3 0,-7 0,-14 0,-20 0,-2 0,-4 0,-6 0,-1 1,-1 2,-1 0,0 1,0 2,0 1,0 1,0 1,1 0,0 0,0 0,0 0,9 0,17 0,26 0,1 0,2 0,3 -1,3 -4,4 -7,4 -2,0 -4,0 -6,-1 -2,-1 -4,-2 -5,-4 -2,-1 -3,-2 -3,-4 0,-9 0,-18 0,-27 0,-2 1,-3 3,-4 7,-4 15,-9 22,-13 2,-1 4,-1 6,0 7,4 15,9 23,13 1,1 2,2 2,4 0,9 0,18 0,27 0,2 -1,3 -2,4 -8,5 -16,9 -23,14 -1,0 -2,0 -2,0 -1,0 -1,0 -2,0z"/>
  <path class="fil0" d="M35 20c2,0 5,0 7,2 3,1 4,3 4,6 0,1 0,1 -1,1 -1,0 -2,0 -3,0 0,0 0,0 0,-1 -1,0 -1,0 -1,0 0,-2 -1,-3 -3,-3 -2,-1 -5,-1 -7,0 -1,0 -2,1 -3,2 0,1 1,2 2,2 1,1 3,1 4,1 3,1 6,1 8,2 2,1 4,2 5,4 0,3 -1,7 -4,9 -3,1 -6,1 -9,1 -3,0 -5,-1 -7,-2 -3,-1 -4,-3 -4,-6 0,-1 0,-1 1,-1 1,0 2,0 3,0 0,0 0,0 0,0 1,3 2,4 5,5 2,0 5,0 7,-1 2,0 3,-1 3,-3 0,-1 0,-1 -1,-2 -1,0 -2,-1 -3,-1 -3,0 -6,0 -8,-1 -1,0 -2,0 -2,-1 -4,-1 -5,-3 -4,-6 0,-4 2,-5 5,-6 2,-1 4,-1 6,-1z"/>
 </g>
</svg>
