<?xml version="1.0" encoding="UTF-8"?>
<!DOCTYPE svg PUBLIC "-//W3C//DTD SVG 1.1//EN" "http://www.w3.org/Graphics/SVG/1.1/DTD/svg11.dtd">
<!-- Creator: CorelDRAW X7 -->
<svg xmlns="http://www.w3.org/2000/svg" xml:space="preserve" width="2.30839in" height="0.722055in" version="1.1" style="shape-rendering:geometricPrecision; text-rendering:geometricPrecision; image-rendering:optimizeQuality; fill-rule:evenodd; clip-rule:evenodd"
viewBox="0 0 1941 607"
 xmlns:xlink="http://www.w3.org/1999/xlink">
 <defs>
  <style type="text/css">
   <![CDATA[
    .fil0 {fill:#FEFEFE;fill-rule:nonzero}
   ]]>
  </style>
 </defs>
 <g id="Capa_x0020_1">
  <metadata id="CorelCorpID_0Corel-Layer"/>
  <path class="fil0" d="M1577 0c119,0 239,0 358,0 5,0 6,1 6,6 0,158 0,316 0,474 0,5 -1,6 -6,6 -36,0 -73,0 -109,0 -5,0 -6,-2 -6,-6 0,-117 0,-234 0,-351 0,-8 1,-7 -8,-7 -36,0 -71,0 -106,0 -6,0 -7,1 -7,6 0,117 0,234 0,351 0,5 -1,7 -7,7 -36,0 -72,0 -109,0 -5,0 -6,-1 -6,-7 0,-116 0,-233 0,-350 0,-8 1,-7 -8,-7 -35,0 -70,0 -105,0 -9,0 -8,-1 -8,8 0,116 0,232 0,349 0,8 1,7 -7,7 -76,0 -153,0 -230,0 -5,0 -6,-1 -6,-6 0,-158 0,-316 0,-474 0,-5 1,-6 6,-6 119,0 239,0 358,0z"/>
  <path class="fil0" d="M606 303c0,-99 0,-197 0,-296 0,-6 2,-7 7,-7 158,0 315,0 472,0 6,0 7,1 7,7 0,157 0,315 0,472 0,6 -1,7 -7,7 -76,0 -153,0 -230,0 -5,0 -6,1 -6,6 1,37 0,73 1,110 0,5 -2,5 -6,5 -77,0 -155,0 -232,0 -5,0 -6,-1 -6,-6 0,-99 0,-198 0,-298z"/>
  <path class="fil0" d="M0 243c0,-79 0,-158 0,-237 0,-4 1,-6 6,-6 158,0 316,0 473,0 6,0 7,1 7,7 0,157 0,315 0,472 0,6 -2,7 -7,7 -36,0 -73,0 -109,0 -5,0 -6,-2 -6,-6 0,-117 0,-234 0,-351 0,-6 -1,-7 -7,-7 -36,0 -71,0 -107,0 -6,0 -7,1 -7,6 0,117 0,234 0,351 0,8 1,7 -7,7 -77,0 -153,0 -230,0 -5,0 -6,-1 -6,-6 0,-79 0,-158 0,-237z"/>
 </g>
</svg>
