<?xml version="1.0" encoding="UTF-8"?>
<!DOCTYPE svg PUBLIC "-//W3C//DTD SVG 1.1//EN" "http://www.w3.org/Graphics/SVG/1.1/DTD/svg11.dtd">
<!-- Creator: CorelDRAW X7 -->
<svg xmlns="http://www.w3.org/2000/svg" xml:space="preserve" width="2.59719in" height="1.01079in" version="1.1" style="shape-rendering:geometricPrecision; text-rendering:geometricPrecision; image-rendering:optimizeQuality; fill-rule:evenodd; clip-rule:evenodd"
viewBox="0 0 2223 865"
 xmlns:xlink="http://www.w3.org/1999/xlink">
 <defs>
  <style type="text/css">
   <![CDATA[
    .fil0 {fill:#C93837;fill-rule:nonzero}
   ]]>
  </style>
 </defs>
 <g id="Capa_x0020_1">
  <metadata id="CorelCorpID_0Corel-Layer"/>
  <path class="fil0" d="M1 0c739,0 1478,0 2216,0 6,0 6,2 6,6 0,245 0,490 0,735 -2,2 -4,3 -7,3 -4,0 -8,0 -12,0 -358,0 -715,0 -1072,0 -4,0 -7,0 -10,0 -5,0 -7,3 -7,7 -1,2 -1,4 -1,7 0,29 0,59 0,89 0,3 0,5 0,8 0,10 0,10 -10,10 -160,0 -319,0 -479,0 -9,0 -9,0 -9,-9 0,-33 0,-65 0,-98 0,-3 0,-5 0,-7 -1,-4 -3,-7 -7,-7 -3,0 -6,0 -9,0 -194,0 -389,0 -583,0 -4,0 -8,0 -12,0 -3,-1 -5,-2 -5,-6 0,-1 0,-2 0,-3 0,-243 0,-486 0,-728 0,-2 0,-5 1,-7z"/>
 </g>
</svg>
