<svg xmlns="http://www.w3.org/2000/svg" viewBox="981 328 761 571.001">
  <defs>
    <style>
      .cls-1 {
        fill: #cb6698;
      }
    </style>
  </defs>
  <path id="path-2" class="cls-1" d="M-715,203h-9a106.161,106.161,0,0,1-25-3c-4.931-1.972-9.9-5.878-14-11a59.914,59.914,0,0,1-12-32c-1.741-13.057.8-26.4,8-42a106.9,106.9,0,0,1,15-22c8.653-9.517,19.774-19.33,34-30a399.552,399.552,0,0,1,44-27c3.5-2,7.056-3.778,10.5-5.5s7-3.5,10.5-5.5c.929-.464,1.44-.72,1.5-1.06.062-.383-.426-.871-1.5-1.94-4.5-3.5-9.326-7.056-13.993-10.495S-676.5,4.5-681,1l-21.312-14.653L-729-32c-2.665-2.332-5.374-4.589-7.995-6.773C-742.244-43.147-747.667-47.666-753-53c-10-8-18.134-18.167-26-28-5.979-8.542-12.675-19.024-17-32a83.673,83.673,0,0,1-4-15v-12c0-9,3.05-17.134,6-25,6.086-18.257,16.572-36.052,33-56,5.9-6.884,12-14,19-20a279.446,279.446,0,0,1,42-35,332.365,332.365,0,0,1,44-29c12.78-6.881,25.992-14,40-21,10.969-4.986,23.134-10.056,34.9-14.958l.1-.042c14.748-5.9,30-12,46-16a373.836,373.836,0,0,1,46-9,246.559,246.559,0,0,1,27-2h26a236.136,236.136,0,0,1,37,6,.839.839,0,0,0,.631.875A4.7,4.7,0,0,0-397-361c5.9,1.966,12,4,19,7a92.746,92.746,0,0,1,30,18c8.972,7.849,15.514,16.027,20,25a79.339,79.339,0,0,1,6,22,10.927,10.927,0,0,1,1,5,1.7,1.7,0,0,1,.222,2,3.265,3.265,0,0,0-.222,1,3.69,3.69,0,0,1,1,3v9a3.69,3.69,0,0,1-1,3v6a116.907,116.907,0,0,1-4,18c-3.67,11.008-7.774,22.623-14,33-5.8,10.45-11.861,18.861-18,25-6,8-13.117,15.117-20,22-7.067,7.067-16.226,13.936-28,21-7,5-15.125,9.062-22.986,12.993-3.325,1.111-6.535,2.363-9.639,3.574A110.875,110.875,0,0,1-454-119q-2.317.713-4.595,1.422c-11.288,3.5-21.95,6.815-33.406,8.578-5.9.983-12,2-17,2a1.845,1.845,0,0,1-1.5.5,1.845,1.845,0,0,0-1.5.5h-6a1.845,1.845,0,0,1-1.5.5,1.845,1.845,0,0,0-1.5.5h-22a3.777,3.777,0,0,0-1.7-.444,4.536,4.536,0,0,0-1.36.252A3.319,3.319,0,0,1-547-105h-3a1.845,1.845,0,0,0-1.5-.5,1.845,1.845,0,0,1-1.5-.5h-4a101.158,101.158,0,0,1-25-6c-.579-.193-1.2-.386-1.836-.587A32.186,32.186,0,0,1-592-116c-3-1-6.046-3.031-8.994-5A57.709,57.709,0,0,1-620-140c-3.01-3.011-4.008-7.042-5-12a3.69,3.69,0,0,1,1-3c.6-1.8,1.557-2.6,3.107-2.6A9.45,9.45,0,0,1-618-157l1.259,1.259L-614-153c5,6,12.113,10.065,18.994,14,7.745,3.443,17.167,5.8,28.006,7a148.507,148.507,0,0,0,21,1c19.672-1.093,38.123-5.918,52-10a219.922,219.922,0,0,0,33-12,222.039,222.039,0,0,0,42-25c8.85-6.884,18-14,25-23a105.191,105.191,0,0,0,20-27,93.754,93.754,0,0,0,12-33c.888-7.1.308-13.767-2-23-1.858-8.357-7.391-15.618-16-21a79.272,79.272,0,0,0-30-12c-7.962-2.655-17.383-4-28-4h-11a304.115,304.115,0,0,0-31,2c-22.1,2.882-42.366,8.48-66,16-10.473,3.809-22.23,8.65-34,14-20,9-39.316,20.182-58,31C-654.715-247.184-672-236-687-223a238.085,238.085,0,0,0-35,36c-10.031,14.489-16.246,28.228-19,42a61.821,61.821,0,0,0-1,13c-1,6,.016,12.1,1,17.993,1.827,9.138,5.3,16.962,12,27.007a218.863,218.863,0,0,0,20,23c10.629,9.566,22.15,18.92,31,26,10.011,7.008,20.173,15.138,30,23,2.172,1.862,4.393,3.685,6.745,5.615C-636.122-5.173-630.825-.825-626,4V5c1.644,1.643,2.394,2.394,3.229,2.394.681,0,1.424-.495,2.771-1.393,6.989-3.495,13.922-7.446,20.626-11.267C-596.511-6.9-593.71-8.495-591-10c8.846-4.915,17.993-10,27-14a63.476,63.476,0,0,1,14-8l3-3a26.655,26.655,0,0,0,2.5-3,26.659,26.659,0,0,1,2.5-3l2-2a147.655,147.655,0,0,1,30-26,57.87,57.87,0,0,1,25-9c.5-.5.754-.5,1-.5s.5,0,1-.5h6a.559.559,0,0,0,.116.4.518.518,0,0,0,.384.1c.246,0,.5,0,.5.5a16.2,16.2,0,0,1,9,3c5.187,2.593,8.579,7.527,11,16v5c.5,0,.5.249.5.625A1.723,1.723,0,0,0-455-52v12c-.237,0-.371.054-.438.172a.974.974,0,0,0-.062.453A1.723,1.723,0,0,1-456-38v6c-.006.006-.545.549-.428.832.047.112.19.169.428.169a.984.984,0,0,0,1-1c1.97-.985,4-2,6-2l1-1h3a48.971,48.971,0,0,1,7,3c5.823,1.942,8.066,6.8,6,13-2,8.009-4.033,16.388-6,24.49C-439.972,13.635-442,22.011-444,30c-.369,1.292-.738,2.549-1.1,3.785A113.133,113.133,0,0,0-449,50c.208,0,.339.044.4.133.107.156,0,.43-.13.777A3.138,3.138,0,0,0-449,52a85.206,85.206,0,0,0-2,16,21.987,21.987,0,0,0,1,8v1a.985.985,0,0,0,1-1,24.222,24.222,0,0,0,2.685-3.312A13.63,13.63,0,0,1-445,71c1-4,3.033-7.05,5-10,0-.984,0-2,1-2a88.851,88.851,0,0,0,8-17,101.42,101.42,0,0,0,7-15l5.559-12.971L-415,6c2.952-5.905,6.005-12.012,9-19,1-2.5,2.274-5.3,3.5-8.01S-400-26.5-399-29c1.5-3,2.768-5.791,4-8.492S-392.5-43-391-46c3.005-8.015,6.052-15.122,9-22,2.853-5.706,4.964-10.779,6-17a52.573,52.573,0,0,0,3.511-10.988c.166-.691.328-1.365.49-2.012a9.055,9.055,0,0,1,6-6,42.4,42.4,0,0,1,10.535-2.2c1.921-.235,3.735-.457,5.465-.8h14a29.922,29.922,0,0,0,3,.778A16.6,16.6,0,0,1-327-104c2.308,2.309,2.887,4.337,2,7-1.147,4.591-2.625,8.852-4.053,12.972C-330.13-80.919-331.148-77.983-332-75a26.812,26.812,0,0,1-.575,4.787A19.563,19.563,0,0,0-333-67v4a1.845,1.845,0,0,0-.5,1.5A1.845,1.845,0,0,1-334-60v6a1.845,1.845,0,0,1,.5,1.5A1.845,1.845,0,0,0-333-51c0,8.933.727,18.508,6,28l3.2,6.4L-321-11c1.965-2.946,4-5.993,5-9,2.5-4.506,5.046-8.829,7.505-13.01s5-8.5,7.495-12.99a321.546,321.546,0,0,0,17-32c2.949-5.9,6-11.993,8-19a78.8,78.8,0,0,0,3.578-13.847c.143-.734.283-1.454.423-2.154.5-1.5,1.262-3.278,2-5s1.5-3.5,2-5c0-1.333.9-1.785,1.778-2.222A4.619,4.619,0,0,0-265-126c2.724-1.362,5.894-1.794,9.249-2.251,1.552-.211,3.156-.43,4.75-.749h4a1.723,1.723,0,0,1,1.375-.5c.376,0,.625,0,.625-.5h10c.5.5.754.5,1,.5s.5,0,1,.5a12.752,12.752,0,0,1,6,1,10.293,10.293,0,0,1,6,5v2l-1.176,3.216C-225.736-108.082-229.1-98.919-230-89c-1,1-1,3.026-1,4v13c.5.5.5.754.5,1s0,.5.5,1a54,54,0,0,0,6,25,186.254,186.254,0,0,0,10,20,.838.838,0,0,0,.631.875A4.694,4.694,0,0,0-212-24c11.218-5.608,21.032-9.206,30-11a68.246,68.246,0,0,1,19-3,1.723,1.723,0,0,1,1.375-.5c.376,0,.625,0,.625-.5h7a1.845,1.845,0,0,1,1.5-.5A1.845,1.845,0,0,0-151-40h14a1.964,1.964,0,0,0,1.625.5A4.769,4.769,0,0,1-133-39h6c.5.5.754.5,1,.5s.5,0,1,.5c2.99.5,6.228,1,9.467,1.495,3.281.5,6.532,1,9.533,1.5,14.653,4.509,27.1,10.9,37,19A88.961,88.961,0,0,1-45,14a86.476,86.476,0,0,1,6,23v2c0,6.883,0,14-2,21A53.17,53.17,0,0,1-65,87c-4.673,3.5-8.562,5-13,5-.974,0-3,0-3-2-1-2,.017-3.016,1-4a55.957,55.957,0,0,0,8-6c7.649-4.781,12.883-11.65,16-21,2.632-8.775,1.707-17.411-3-28C-63.623,18.981-72.959,8.607-86,1c-11.722-6.838-23.206-9.817-37-13l-2.514-.253A257.44,257.44,0,0,0-152-14c-20.845,0-36.883,2.776-52,9a.838.838,0,0,0-.875.631A4.7,4.7,0,0,0-205-3a97.28,97.28,0,0,1,6,23c.9,9.87-1.393,19.028-7,28-7.908,13.556-20.135,22.165-29,27a94.733,94.733,0,0,1-30,12,25.32,25.32,0,0,1-5.477.617c-6.638,0-12.3-2.776-15.523-7.617-2.159-4.318-2.925-9.3-2-13,1.042-17.715,8.786-31.135,17-43,6.813-8.516,15.23-18.384,26-27a3.691,3.691,0,0,0,1-3c-.484-.846-.982-1.707-1.488-2.581-3.648-6.3-7.757-13.4-9.512-20.418a203.33,203.33,0,0,1-9-33,3.69,3.69,0,0,0-1-3c0,1,0,1-1,2A589.132,589.132,0,0,1-306,6a22.072,22.072,0,0,1-1.5,2.5A22.117,22.117,0,0,0-309,11a3.691,3.691,0,0,0-1,3,226.213,226.213,0,0,1,8,24c3.153,24.171-4.7,42.488-24,56a99.983,99.983,0,0,1-47,18,54.125,54.125,0,0,1-8.875.751A41.6,41.6,0,0,1-390,112c-6.262-2.087-10-6.2-10-11-.945-2.834-.161-6.759,2-10,4.774-6.685,9.482-12.4,16-20l15.789-18.947L-352,35a39.246,39.246,0,0,1,4.554-6.726c.889-1.13,1.728-2.2,2.446-3.274a1.881,1.881,0,0,0,0-3,157.319,157.319,0,0,0-7.969-17.065c-1-1.946-2.018-3.908-3.031-5.934a191.6,191.6,0,0,1-9-32,28.39,28.39,0,0,1-.938-4.031A15.319,15.319,0,0,0-367-41c0-.5,0-.75-.125-.875S-367.5-42-368-42a781.186,781.186,0,0,1-42,93,493.779,493.779,0,0,1-24,45,71.89,71.89,0,0,1-17,22,36.942,36.942,0,0,1-11,5,23.5,23.5,0,0,1-2.9.186c-7.272,0-12.634-3.617-15.1-10.185-2.993-4.988-4-9.985-5-16-1.134-11.34-.788-22.06,1-31V63a.97.97,0,0,1-1,1,341.849,341.849,0,0,1-22,48c-2.951,4.918-6,10-10,14-6.027,7.031-14.135,8-22,8-8.049-.894-14.217-4.9-20-13-7.259-10.37-11.3-23.083-14-33a153.353,153.353,0,0,1-3-30A197.719,197.719,0,0,1-566,5V4a75.031,75.031,0,0,0-12,7c-7,3.5-13.934,7.453-20.643,11.276C-601.5,23.9-604.3,25.5-607,27c-1.015.507-1.553,1.027-1.644,1.589A1.668,1.668,0,0,0-608,30c4.641,10.44,7.108,19.075,8,28,1,7,1,14.969,1,22-1.055,29.552-9.887,54.084-27,75-14.7,19.594-34.209,33.725-58,42A85.493,85.493,0,0,1-715,203Zm81.427-163.273c-.559,0-1.127.71-1.677,1.4A10.89,10.89,0,0,1-636,42c-24.028,13.106-44.308,27.171-62,43-12.1,10.892-19.813,20.762-25,32-2.945,7.851-6,16.982-5,26,0,10.849,5.879,17.073,17,18,9,0,17.135-3.05,25-6,13.074-5.6,25.186-15.023,36-28,13.934-16.921,21-37.108,21-60a163.155,163.155,0,0,0-2-23,13.845,13.845,0,0,1-.82-2.181c-.326-1.057-.562-1.82-1.18-1.82A.8.8,0,0,0-633.573,39.727ZM-333,44c-1,1-1,1-2,1-8,12-18.168,23.185-28,34a57.087,57.087,0,0,0-7,8h0c-1,0-1,1.016-1,2,.307.307.536.445.741.445a.848.848,0,0,0,.439-.174A1.429,1.429,0,0,1-369,89a6.573,6.573,0,0,0,2.686-.627A3.6,3.6,0,0,1-365,88a79.137,79.137,0,0,0,22-18C-335.991,60.655-333,52.879-333,44ZM-480-49a18.518,18.518,0,0,0-7,2,48.671,48.671,0,0,0-18,14c-5.974,6.97-9.918,13.836-14,22a131.747,131.747,0,0,0-18,67c0,4.01,0,9,1,13a28.33,28.33,0,0,0,4,15c1.046,2.615,2.355,3.886,4,3.885,1.422,0,3.056-.944,5-2.885,1.5-2,2.77-4.033,4-6s2.5-4,4-6c4.706-10.2,8.8-21.013,12.756-31.472C-501.156,38.652-500.078,35.8-499,33c7.867-19.67,16-40.008,21-61,.3-1.5.684-3.066,1.09-4.722C-475.97-36.551-475-40.5-475-44-475.944-46.833-476.912-49-480-49Zm247.165,59.606c-.178,0-.471.209-1,.587-.3.215-.681.485-1.163.806a93.5,93.5,0,0,0-26,41c-.209.626-.417,1.208-.617,1.765A17.351,17.351,0,0,0-263,61c.63,1.89.865,2.6,1.459,2.6A4.356,4.356,0,0,0-260,63c1,0,1.019-.019,2-1,17.412-6.771,27-20.622,27-39,.785-2.355.458-5.626-1-10-.223-.67-.347-1.191-.437-1.572C-232.572,10.863-232.633,10.606-232.834,10.606Z" transform="translate(1781 696)"/>
</svg>
